<?xml version="1.0" encoding="utf-8"?>
<!-- Generator: Adobe Illustrator 24.0.1, SVG Export Plug-In . SVG Version: 6.00 Build 0)  -->
<svg version="1.1" id="Layer_1" xmlns="http://www.w3.org/2000/svg" xmlns:xlink="http://www.w3.org/1999/xlink" x="0px" y="0px"
	 viewBox="0 0 250 200" style="enable-background:new 0 0 250 200;" xml:space="preserve">
<style type="text/css">
	.st0{fill:#EC111A;}
	.st1{fill:none;stroke:#009DD6;stroke-width:5.38;stroke-linecap:round;stroke-linejoin:round;}
	.st2{fill:none;stroke:#14A0DE;stroke-width:5.1;stroke-linecap:round;stroke-linejoin:round;}
	.st3{fill:#14A0DE;}
</style>
<title>Scotia-Icons_Txt</title>
<path class="st0" d="M128.05,76.29h11.29c1.14,0,2.06,0.92,2.06,2.06v23.29c0,1.14-0.92,2.06-2.06,2.06h-11.29
	c-1.14,0-2.06-0.92-2.06-2.06V78.35C125.99,77.21,126.91,76.29,128.05,76.29z"/>
<path class="st0" d="M150.67,63.27h11.29c1.14,0,2.06,0.92,2.06,2.06v36.32c0,1.14-0.92,2.06-2.06,2.06h-11.29
	c-1.14,0-2.06-0.92-2.06-2.06V65.33C148.61,64.19,149.53,63.27,150.67,63.27z"/>
<path class="st0" d="M173.29,68.24h11.29c1.14,0,2.06,0.92,2.06,2.06v31.35c0,1.14-0.92,2.06-2.06,2.06h-11.29
	c-1.14,0-2.06-0.92-2.06-2.06V70.3C171.23,69.16,172.15,68.24,173.29,68.24z"/>
<path class="st0" d="M195.92,52.63h11.29c1.14,0,2.06,0.92,2.06,2.06v46.96c0,1.14-0.92,2.06-2.06,2.06h-11.29
	c-1.14,0-2.06-0.92-2.06-2.06V54.69C193.86,53.55,194.78,52.63,195.92,52.63z"/>
<path class="st1" d="M96.88,56.38V32.22c0.05-2.38,2.02-4.27,4.4-4.22c0,0,0,0,0,0H220.6c2.38-0.05,4.35,1.84,4.4,4.22c0,0,0,0,0,0
	v84.17c-0.05,2.38-2.02,4.27-4.4,4.22c0,0,0,0,0,0h-96.44"/>
<circle class="st2" cx="67.52" cy="99.54" r="42.52"/>
<rect x="101.49" y="126.43" transform="matrix(0.7285 -0.6851 0.6851 0.7285 -65.361 108.1322)" class="st3" width="4.5" height="20.19"/>
<path class="st3" d="M112.41,139.26l-3,1.13c-0.96,0.35-1.73,1.07-2.16,2l-1.31,2.92c-0.63,1.42-0.35,3.08,0.71,4.21l20,21.24
	c1.46,1.55,3.89,1.62,5.44,0.16l4.31-4c1.55-1.46,1.62-3.89,0.17-5.44l-20-21.23C115.51,139.11,113.87,138.72,112.41,139.26z"/>
<path class="st0" d="M67.53,73.2c-14.73,0-26.67,11.94-26.67,26.67s11.94,26.67,26.67,26.67S94.2,114.6,94.2,99.87
	C94.18,85.15,82.25,73.22,67.53,73.2z M69.81,113.11v3.35c0,0.36-0.29,0.65-0.65,0.65h-3.27c-0.36-0.01-0.64-0.29-0.64-0.65v-3.27
	c-3.33-0.2-6.02-2.78-6.36-6.1c-0.02-0.35,0.25-0.66,0.6-0.68c0.02,0,0.03,0,0.05,0h3.31c0.29,0,0.55,0.19,0.62,0.47
	c0.22,1.04,1.14,1.79,2.21,1.79h2.89c1.72,0.04,3.2-1.22,3.44-2.92c0.18-1.8-1.13-3.4-2.92-3.58c-0.11-0.01-0.22-0.02-0.33-0.02
	h-2.12c-4.1,0.1-7.62-2.93-8.13-7c-0.41-4.19,2.57-7.96,6.74-8.52v-3.35c0-0.36,0.28-0.64,0.64-0.65h3.27
	c0.36,0,0.65,0.29,0.65,0.65v3.27c3.32,0.21,6.01,2.79,6.35,6.1c0.02,0.36-0.25,0.67-0.61,0.69c-0.01,0-0.03,0-0.04,0h-3.3
	c-0.29,0-0.55-0.2-0.62-0.48c-0.23-1.05-1.15-1.79-2.22-1.79h-2.89C64.74,91.01,63.24,92.28,63,94c-0.18,1.8,1.13,3.4,2.92,3.58
	c0.11,0.01,0.22,0.02,0.33,0.02h2.47c4.33,0.01,7.83,3.52,7.83,7.85c0,0.25-0.01,0.5-0.04,0.75
	C76.07,109.74,73.33,112.56,69.81,113.11z"/>
</svg>
