<svg id="Layer_1" data-name="Layer 1" xmlns="http://www.w3.org/2000/svg" viewBox="0 0 450 295"><defs><style>.cls-1{fill:#009dd6;}.cls-2{fill:#ec111a;}.cls-3{font-size:40px;fill:#333;font-family:Scotia-Bold, Scotia;font-weight:700;}.cls-4{letter-spacing:-0.01em;}.cls-5{letter-spacing:-0.02em;}</style></defs><title>Scotia-Icons_Txt</title><path class="cls-1" d="M250.35,45.55l-.61-.23-.61.23A16.15,16.15,0,0,1,242.25,47H197.3l.61,2a17.13,17.13,0,0,1-16.43,21.78,15.9,15.9,0,0,1-6.8-1.45l-1.3-.61-.69,1.23a60.82,60.82,0,0,0,25.3,85.3l.76.31.69-.38a16.3,16.3,0,0,1,8.33-2.22h44.95l-.61-1.91A17.05,17.05,0,0,1,276,131l1.3.69.76-1.3a60.92,60.92,0,0,0-27.75-84.85ZM230.17,128v6.35a1.93,1.93,0,0,1-1.91,1.83h-6.57a1.86,1.86,0,0,1-1.84-1.83v-6.19A14.13,14.13,0,0,1,207,115.42a1.86,1.86,0,0,1,.46-1.38,1.92,1.92,0,0,1,1.38-.61h6.65a1.83,1.83,0,0,1,1.83,1.37,4.06,4.06,0,0,0,3.9,3.21h5.88a6.09,6.09,0,0,0,4.9-10.16,6.22,6.22,0,0,0-4.51-2h-4.28c-8.72,0-16.21-6.42-17-14.68a16.31,16.31,0,0,1,13.6-17.73V67.26a1.88,1.88,0,0,1,1.84-1.91h6.57a1.94,1.94,0,0,1,1.91,1.91v6.11A14.25,14.25,0,0,1,243,86.14a1.45,1.45,0,0,1-.53,1.3,1.57,1.57,0,0,1-1.38.61h-6.65a1.75,1.75,0,0,1-1.76-1.37,4.09,4.09,0,0,0-4-3.22h-5.81a6.33,6.33,0,0,0-6.42,5.43A6.26,6.26,0,0,0,218,93.63a6.14,6.14,0,0,0,4.43,2h5.05A16.88,16.88,0,0,1,239.65,101a16.19,16.19,0,0,1,4.13,12.61C243.09,120.69,237.51,126.5,230.17,128Z"/><path class="cls-2" d="M181.49,59.89a6.11,6.11,0,0,1-4.39-1.82L153.36,34.33a6.19,6.19,0,0,1,0-8.77L177.1,1.82a6.2,6.2,0,1,1,8.77,8.77L172.73,23.74h69.53a6.21,6.21,0,0,1,0,12.41H172.73L185.88,49.3a6.22,6.22,0,0,1,0,8.77A6.13,6.13,0,0,1,181.49,59.89Z"/><path class="cls-2" d="M268.51,200a6.2,6.2,0,0,1-6.2-6.21,6.11,6.11,0,0,1,1.82-4.38l13.14-13.15H207.74a6.21,6.21,0,0,1,0-12.41h69.53L264.12,150.7a6.23,6.23,0,0,1,0-8.78,6.24,6.24,0,0,1,8.79,0l23.73,23.75a6.19,6.19,0,0,1,0,8.77L272.9,198.18A6.17,6.17,0,0,1,268.51,200Z"/><text class="cls-3" transform="translate(59.68 234.71)">I<tspan class="cls-4" x="11.6" y="0">n</tspan><tspan x="35.32" y="0">g</tspan><tspan class="cls-5" x="57.28" y="0">r</tspan><tspan x="72.72" y="0">esos / Eg</tspan><tspan class="cls-5" x="233.68" y="0">r</tspan><tspan x="249.12" y="0">esos</tspan></text></svg>