<?xml version="1.0" encoding="utf-8"?>
<!-- Generator: Adobe Illustrator 24.0.1, SVG Export Plug-In . SVG Version: 6.00 Build 0)  -->
<svg version="1.1" id="Layer_1" xmlns="http://www.w3.org/2000/svg" xmlns:xlink="http://www.w3.org/1999/xlink" x="0px" y="0px"
	 viewBox="0 0 250 200" style="enable-background:new 0 0 250 200;" xml:space="preserve">
<style type="text/css">
	.st0{fill:#EC111A;}
	.st1{fill:#009DD6;}
</style>
<title>Scotia-Icons_Txt</title>
<path class="st0" d="M64,94.09c-1.25-2.28-3.63-3.7-6.23-3.7h-7.9v-5.78c-0.02-37.75,30.57-68.36,68.32-68.38
	c16.18-0.01,31.83,5.72,44.18,16.17c3.33,2.81,8.31,2.4,11.12-0.93s2.4-8.31-0.93-11.13c-35.49-30-88.58-25.55-118.58,9.94
	C41.14,45.47,34.1,64.72,34.1,84.61v5.78h-7.89c-3.93-0.03-7.13,3.13-7.16,7.06c-0.01,1.4,0.39,2.77,1.16,3.94L36,126
	c2.1,3.31,6.48,4.3,9.8,2.2c0.89-0.56,1.64-1.32,2.2-2.2l15.79-24.61C65.19,99.18,65.27,96.38,64,94.09z"/>
<path class="st1" d="M148.21,93.86l10.94-1.11c1.76-0.17,3.1-1.65,3.1-3.42v-9.45c-0.01-1.76-1.34-3.24-3.09-3.42l-11-1.11
	c-0.4-0.04-0.73-0.31-0.85-0.69c-0.42-1.23-0.92-2.43-1.5-3.59c-0.15-0.36-0.08-0.78,0.19-1.07l7-8.54c1.12-1.36,1.02-3.35-0.23-4.6
	l-6.77-6.7c-1.25-1.25-3.24-1.35-4.6-0.23l-8.54,7c-0.31,0.25-0.74,0.3-1.09,0.12c-1.17-0.58-2.37-1.08-3.6-1.5
	c-0.37-0.12-0.64-0.46-0.68-0.85l-1.09-11c-0.18-1.74-1.65-3.07-3.4-3.08h-9.45c-1.76,0-3.24,1.33-3.42,3.08L109,54.65
	c-0.04,0.39-0.31,0.73-0.68,0.85c-1.23,0.42-2.43,0.92-3.6,1.5c-0.35,0.18-0.78,0.13-1.09-0.12l-8.53-7
	c-1.37-1.12-3.36-1.02-4.61,0.23l-6.68,6.68c-1.24,1.25-1.34,3.23-0.23,4.6l7,8.54c0.25,0.31,0.3,0.74,0.12,1.09
	c-0.58,1.16-1.08,2.36-1.51,3.59c-0.12,0.38-0.45,0.65-0.85,0.69L77.4,76.41c-1.75,0.18-3.09,1.66-3.09,3.42v9.45
	c0,1.77,1.33,3.25,3.09,3.42l10.94,1.11c0.4,0.04,0.73,0.31,0.85,0.69c0.43,1.23,0.93,2.43,1.51,3.6c0.18,0.35,0.13,0.78-0.12,1.08
	l-7,8.54c-1.11,1.37-1.01,3.36,0.23,4.61l6.68,6.67c1.25,1.25,3.24,1.35,4.61,0.24l8.53-7c0.31-0.25,0.74-0.3,1.09-0.12
	c1.17,0.58,2.37,1.08,3.6,1.51c0.37,0.12,0.64,0.46,0.68,0.85l1.12,10.94c0.18,1.75,1.66,3.09,3.42,3.09H123
	c1.76,0,3.24-1.34,3.42-3.09l1.11-10.94c0.04-0.39,0.31-0.73,0.68-0.85c1.23-0.43,2.43-0.93,3.6-1.51c0.35-0.18,0.78-0.13,1.09,0.12
	l8.54,7c1.37,1.11,3.35,1.01,4.6-0.24l6.68-6.67c1.25-1.25,1.35-3.24,0.23-4.61l-7-8.54c-0.25-0.31-0.29-0.73-0.11-1.08
	c0.58-1.17,1.08-2.37,1.5-3.6C147.48,94.13,147.82,93.88,148.21,93.86z M118.21,99.86c-8.43,0-15.26-6.83-15.26-15.26
	s6.83-15.26,15.26-15.26c8.43,0,15.26,6.83,15.26,15.26l0,0c0.01,8.42-6.8,15.25-15.22,15.27L118.21,99.86z"/>
<path class="st0" d="M188.52,43.27l-15.78,24.61c-2.15,3.29-1.23,7.69,2.06,9.84c1.17,0.77,2.54,1.17,3.94,1.16h7.89v5.78
	c0,37.75-30.61,68.36-68.37,68.35c-16.15,0-31.78-5.72-44.11-16.14c-3.33-2.81-8.31-2.4-11.12,0.93c-2.81,3.33-2.4,8.31,0.93,11.12
	c30.14,25.53,74.01,26.58,105.33,2.51l37.08,41.21c5.21,5.78,14.11,6.24,19.89,1.03c5.78-5.21,6.24-14.11,1.03-19.89
	c-0.33-0.36-0.67-0.71-1.04-1.04L185,135.62c11.26-14.62,17.37-32.55,17.37-51v-5.79h7.89c3.93,0.03,7.13-3.13,7.16-7.06
	c0.01-1.4-0.39-2.77-1.16-3.94l-15.77-24.56C197.87,39.2,191.15,39.2,188.52,43.27z"/>
</svg>
