<svg id="Layer_1" data-name="Layer 1" xmlns="http://www.w3.org/2000/svg" viewBox="0 0 200 200"><defs><style>.cls-1{fill:#009dd6;}.cls-2{fill:#ec111a;}</style></defs><title>Scotia-Icons-NO_NAME</title><path class="cls-1" d="M125.35,45.55l-.61-.23-.61.23A16.15,16.15,0,0,1,117.25,47H72.3l.61,2A17.13,17.13,0,0,1,56.48,70.77a15.9,15.9,0,0,1-6.8-1.45l-1.3-.61-.69,1.23A60.82,60.82,0,0,0,73,155.24l.76.31.69-.38A16.3,16.3,0,0,1,82.77,153h45l-.61-1.91A17.05,17.05,0,0,1,151,131l1.3.69.76-1.3a60.92,60.92,0,0,0-27.75-84.85ZM105.17,128v6.35a1.93,1.93,0,0,1-1.91,1.83H96.69a1.86,1.86,0,0,1-1.84-1.83v-6.19A14.13,14.13,0,0,1,82,115.42a1.86,1.86,0,0,1,.46-1.38,1.92,1.92,0,0,1,1.38-.61H90.5a1.83,1.83,0,0,1,1.83,1.37,4.06,4.06,0,0,0,3.9,3.21h5.88a6.09,6.09,0,0,0,4.9-10.16,6.22,6.22,0,0,0-4.51-2H98.22c-8.72,0-16.21-6.42-17-14.68a16.31,16.31,0,0,1,13.6-17.73V67.26a1.88,1.88,0,0,1,1.84-1.91h6.57a1.94,1.94,0,0,1,1.91,1.91v6.11A14.25,14.25,0,0,1,118,86.14a1.45,1.45,0,0,1-.53,1.3,1.57,1.57,0,0,1-1.38.61h-6.65a1.75,1.75,0,0,1-1.76-1.37,4.09,4.09,0,0,0-4-3.22H97.91a6.33,6.33,0,0,0-6.42,5.43A6.26,6.26,0,0,0,93,93.63a6.14,6.14,0,0,0,4.43,2h5A16.88,16.88,0,0,1,114.65,101a16.19,16.19,0,0,1,4.13,12.61C118.09,120.69,112.51,126.5,105.17,128Z"/><path class="cls-2" d="M56.49,59.89a6.11,6.11,0,0,1-4.39-1.82L28.36,34.33a6.19,6.19,0,0,1,0-8.77L52.1,1.82a6.2,6.2,0,1,1,8.77,8.77L47.73,23.74h69.53a6.21,6.21,0,0,1,0,12.41H47.73L60.88,49.3a6.22,6.22,0,0,1,0,8.77A6.13,6.13,0,0,1,56.49,59.89Z"/><path class="cls-2" d="M143.51,200a6.2,6.2,0,0,1-6.2-6.21,6.11,6.11,0,0,1,1.82-4.38l13.14-13.15H82.74a6.21,6.21,0,0,1,0-12.41h69.53L139.12,150.7a6.23,6.23,0,0,1,0-8.78,6.24,6.24,0,0,1,8.79,0l23.73,23.75a6.19,6.19,0,0,1,0,8.77L147.9,198.18A6.17,6.17,0,0,1,143.51,200Z"/></svg>