<?xml version="1.0" encoding="utf-8"?>
<!-- Generator: Adobe Illustrator 24.0.1, SVG Export Plug-In . SVG Version: 6.00 Build 0)  -->
<svg version="1.1" id="Layer_1" xmlns="http://www.w3.org/2000/svg" xmlns:xlink="http://www.w3.org/1999/xlink" x="0px" y="0px"
	 viewBox="0 0 250 200" style="enable-background:new 0 0 250 200;" xml:space="preserve">
<style type="text/css">
	.st0{fill:#009DD6;}
	.st1{fill:#EC111A;}
</style>
<title>Scotia-Icons_Txt</title>
<path class="st0" d="M174.91,150.1l-3.79-4.67c-12.07-13.55-29-23.59-36.36-27.57l-2.93,4.63c-2.64,4.19-7.71,6.16-12.49,4.87
	l-0.19-0.07c-5.68-1.79-9.05-7.64-7.74-13.45c1.03-4.55,2.71-8.93,5-13l-4.51-0.63c-3.7-0.51-7.47,0.19-10.74,2l-3.12,1.69
	c-4.13,2.27-9.07,2.54-13.42,0.74l-6.15-2.55l-25,39l8.41,5.65l4.62-4.62c4.26-4.26,11.17-4.27,15.43-0.01c0,0,0.01,0.01,0.01,0.01
	c1.61,1.59,2.66,3.67,3,5.91c5.88-1.09,11.53,2.8,12.62,8.68c0.12,0.67,0.18,1.35,0.18,2.03c0,0.63-0.06,1.27-0.17,1.89
	c2.12,0.34,4.09,1.32,5.66,2.79l0,0l0.24,0.21c2.51,2.53,3.63,6.12,3,9.63c2.23,0.35,4.29,1.4,5.89,3l0.21,0.24
	c3.61,3.81,4,9.64,0.93,13.9l4.89,6c2.63,2.36,6.63,2.3,9.18-0.14c2.5-2.48,2.58-6.5,0.2-9.09l-2.09-2.17
	c-1.31-1.28-1.34-3.38-0.05-4.69c1.28-1.31,3.38-1.34,4.69-0.05c0.01,0.01,0.03,0.03,0.04,0.04l4,4c2.58,2.55,6.74,2.55,9.32,0
	c0,0,0.09-0.1,0.15-0.16c2.44-2.56,2.39-6.59-0.11-9.09l-4.43-4.44c-1.29-1.27-1.31-3.35-0.04-4.64c0.01-0.01,0.03-0.03,0.04-0.04
	c1.31-1.27,3.39-1.27,4.7,0l6.41,6.42c1.24,1.22,2.92,1.89,4.66,1.88l0,0c3.62-0.01,6.54-2.96,6.52-6.58
	c-0.01-1.64-0.63-3.22-1.74-4.42l-6.68-6.65c-1.28-1.31-1.28-3.4,0-4.71c1.3-1.3,3.41-1.3,4.71,0L166,160
	c1.42,1.41,3.35,2.18,5.35,2.12c1.73-0.01,3.38-0.73,4.55-2c1.09-1.22,1.7-2.79,1.71-4.43c-0.01-0.83-0.17-1.66-0.47-2.43
	C176.46,152.2,175.69,151.13,174.91,150.1z"/>
<path class="st0" d="M144.93,100.5l-9.4-3.17c-4.31-1.43-9.05,0.17-11.61,3.93l-0.41,0.64c-2.65,4.1-4.56,8.64-5.64,13.41
	c-0.49,2.46,0.94,4.89,3.32,5.66c1.93,0.51,3.96-0.3,5-2l4.57-7.25c0.61-0.97,1.67-1.55,2.81-1.55c0.51,0,1.01,0.11,1.46,0.34
	c1.35,0.66,32.89,16.3,47.87,39.38l14-8L171.45,102C162.64,103.91,153.47,103.4,144.93,100.5z"/>
<path class="st0" d="M104.69,179.71c-1.12,0-2.2,0.45-3,1.24l-6.92,6.92c-1.67,1.67-1.67,4.39,0,6.06c1.71,1.58,4.35,1.58,6.06,0
	l6.92-6.92c1.67-1.66,1.68-4.37,0.02-6.04c-0.8-0.81-1.89-1.26-3.02-1.26H104.69z"/>
<path class="st0" d="M98.82,168.34c-1.67-1.63-4.33-1.63-6,0L84,177.11c-0.79,0.8-1.24,1.88-1.24,3c0,1.13,0.45,2.21,1.25,3
	c1.7,1.56,4.3,1.56,6,0l8.79-8.78C100.43,172.67,100.44,170.01,98.82,168.34z"/>
<path class="st0" d="M91.18,158.75c-0.03-2.37-1.97-4.27-4.34-4.24c-1.12,0.01-2.18,0.46-2.97,1.24l-10.64,10.64
	c-1.67,1.68-1.67,4.38,0,6.06c1.7,1.61,4.36,1.61,6.06,0l10.64-10.64C90.74,161,91.19,159.9,91.18,158.75z"/>
<path class="st0" d="M77.31,146.82c-1.68-1.66-4.38-1.66-6.06,0l-8.77,8.77c-1.67,1.67-1.68,4.38-0.01,6.05
	c0.8,0.8,1.88,1.25,3.01,1.26l0,0c1.13,0,2.2-0.45,3-1.25l8.77-8.78C78.93,151.21,78.96,148.51,77.31,146.82z"/>
<path class="st0" d="M73.68,90.26L61.6,82.55c-0.6-0.38-1.29-0.59-2-0.59c-0.27,0-0.54,0.03-0.81,0.07
	c-0.97,0.23-1.81,0.82-2.35,1.66l-30.83,48.25c-1.12,1.75-0.61,4.08,1.14,5.21l12.08,7.71c0.84,0.53,1.86,0.7,2.83,0.49
	c0.97-0.23,1.82-0.81,2.38-1.63l30.83-48.28c1.1-1.75,0.58-4.07-1.18-5.17C73.69,90.27,73.68,90.26,73.68,90.26z M39,136.56
	c-2.92,0-5.28-2.36-5.28-5.28c0-2.92,2.36-5.28,5.28-5.28c2.92,0,5.28,2.36,5.28,5.28c0,0,0,0.01,0,0.01
	C44.27,134.2,41.91,136.55,39,136.56z"/>
<path class="st0" d="M224.42,131.94l-30.83-48.25c-0.53-0.84-1.38-1.43-2.35-1.63c-0.27-0.07-0.56-0.1-0.84-0.1
	c-0.71,0-1.4,0.21-2,0.59l-12.1,7.71c-1.74,1.12-2.24,3.43-1.14,5.18L206,143.72c1.13,1.73,3.43,2.23,5.18,1.14l12.08-7.71
	C225.02,136.03,225.54,133.7,224.42,131.94z M211,136.56c-2.92,0.01-5.28-2.35-5.29-5.27s2.35-5.28,5.27-5.29
	c2.92-0.01,5.28,2.35,5.29,5.27c0,0.01,0,0.01,0,0.02C216.27,134.2,213.91,136.56,211,136.56z"/>
<path class="st1" d="M167.42,44.21c0-23.37-18.94-42.31-42.31-42.31c-23.37,0-42.31,18.94-42.31,42.31
	c0,23.37,18.94,42.31,42.31,42.31l0,0C148.48,86.52,167.42,67.58,167.42,44.21z M119.78,61.53c-1.79-0.01-3.5-0.73-4.76-2L104.49,49
	c-2.51-2.74-2.32-6.99,0.42-9.49c2.57-2.36,6.53-2.35,9.09,0.01l5.78,5.78l16.44-16.45c2.63-2.63,6.88-2.63,9.51,0s2.63,6.88,0,9.51
	l-21.2,21.2C123.27,60.82,121.56,61.53,119.78,61.53z"/>
</svg>
