<?xml version="1.0" encoding="utf-8"?>
<!-- Generator: Adobe Illustrator 24.0.1, SVG Export Plug-In . SVG Version: 6.00 Build 0)  -->
<svg version="1.1" id="Layer_1" xmlns="http://www.w3.org/2000/svg" xmlns:xlink="http://www.w3.org/1999/xlink" x="0px" y="0px"
	 viewBox="0 0 250 200" style="enable-background:new 0 0 250 200;" xml:space="preserve">
<style type="text/css">
	.st0{fill:#009DD6;}
	.st1{fill:#EC111A;}
</style>
<title>Scotia-Icons_Txt</title>
<path class="st0" d="M96.15,37.79c-2.65-0.01-4.79-2.15-4.79-4.8V0.24H29.79C27.16,0.24,25.02,2.37,25,5v128.34
	c0,2.65,2.14,4.79,4.79,4.8h94.33c2.65-0.01,4.79-2.15,4.79-4.8V37.79H96.15z M51.62,28.2h20c2.65,0.12,4.7,2.37,4.58,5.01
	c-0.11,2.48-2.1,4.46-4.58,4.58h-20c-2.65-0.12-4.7-2.37-4.58-5.01C47.16,30.3,49.14,28.31,51.62,28.2z M102.29,114.36H51.62
	c-2.65-0.12-4.7-2.37-4.58-5.01c0.11-2.48,2.1-4.46,4.58-4.58h50.67c2.65,0.12,4.7,2.37,4.58,5.01
	C106.75,112.26,104.77,114.25,102.29,114.36z M102.29,88.86H51.62c-2.65-0.12-4.7-2.37-4.58-5.01c0.11-2.48,2.1-4.46,4.58-4.58
	h50.67c2.65,0.12,4.7,2.37,4.58,5.01C106.75,86.76,104.77,88.75,102.29,88.86z M102.29,63.32H51.62c-2.65-0.12-4.7-2.37-4.58-5.01
	c0.11-2.48,2.1-4.46,4.58-4.58h50.67c2.65,0.12,4.7,2.37,4.58,5.01C106.75,61.22,104.77,63.21,102.29,63.32z"/>
<path class="st0" d="M127.5,27.21L101.93,1.64c-0.3-0.29-0.64-0.54-1-0.74v27.31h27.3C128.03,27.85,127.79,27.51,127.5,27.21z"/>
<path class="st0" d="M223.54,80.44L198,54.87c-0.3-0.29-0.64-0.53-1-0.74v27.3h27.31C224.09,81.07,223.84,80.74,223.54,80.44z"/>
<path class="st0" d="M173.85,177.94c0-16.19,13.12-29.32,29.31-29.33c8.33,0,16.27,3.54,21.84,9.75v-67h-32.76
	c-2.65-0.01-4.79-2.15-4.79-4.8V53.85h-51.1v83.83c0.03,3.42-2.73,6.21-6.14,6.24c-0.1,0-0.2,0-0.31-0.01h-8.81v43
	c0,2.65,2.14,4.79,4.79,4.79h51.42C175.03,187.47,173.85,182.74,173.85,177.94z M147.71,81.81h20c2.65,0.12,4.7,2.37,4.58,5.01
	c-0.11,2.48-2.1,4.46-4.58,4.58h-20c-2.65-0.12-4.7-2.37-4.58-5.01C143.25,83.91,145.23,81.92,147.71,81.81L147.71,81.81z
	 M147.71,107.34h50.67c2.65,0.12,4.7,2.37,4.58,5.01c-0.11,2.48-2.1,4.46-4.58,4.58h-50.67c-2.65-0.12-4.7-2.37-4.58-5.01
	C143.25,109.44,145.23,107.45,147.71,107.34z M147.71,132.88h50.67c2.65,0,4.79,2.14,4.79,4.79c0,2.65-2.14,4.79-4.79,4.79h-50.67
	c-2.65,0-4.79-2.14-4.79-4.79C142.92,135.02,145.06,132.88,147.71,132.88z M166,168h-18.29c-2.65-0.12-4.7-2.37-4.58-5.01
	c0.11-2.48,2.1-4.46,4.58-4.58H166c2.65,0.12,4.7,2.37,4.58,5.01C170.46,165.9,168.48,167.89,166,168z"/>
<path class="st1" d="M203.17,156.11c-12.06,0-21.83,9.77-21.83,21.83s9.77,21.83,21.83,21.83c12.06,0,21.83-9.77,21.83-21.83
	c0,0,0,0,0,0c0.01-12.05-9.76-21.82-21.81-21.83C203.18,156.11,203.18,156.11,203.17,156.11z M212.33,182.73H208v4.36
	c-0.12,2.65-2.37,4.7-5.01,4.58c-2.48-0.11-4.46-2.1-4.58-4.58v-4.36H194c-2.65-0.12-4.7-2.37-4.58-5.01
	c0.11-2.48,2.1-4.46,4.58-4.58h4.36v-4.35c-0.12-2.65,1.93-4.89,4.58-5.01c2.65-0.12,4.89,1.93,5.01,4.58
	c0.01,0.15,0.01,0.29,0,0.44v4.35h4.36c2.65,0.12,4.7,2.37,4.58,5.01c-0.11,2.48-2.1,4.46-4.58,4.58H212.33z"/>
</svg>
