<svg id="Layer_1" data-name="Layer 1" xmlns="http://www.w3.org/2000/svg" viewBox="0 0 450 295"><defs><style>.cls-1{fill:#009dd6;}.cls-2{fill:#ec111a;}.cls-3{font-size:40px;fill:#333;font-family:Scotia-Bold, Scotia;font-weight:700;}.cls-4{letter-spacing:-0.02em;}.cls-5{letter-spacing:-0.01em;}.cls-6{letter-spacing:0em;}.cls-7{letter-spacing:-0.02em;}</style></defs><title>Scotia-Icons_Txt</title><path class="cls-1" d="M196.15,37.79a4.8,4.8,0,0,1-4.79-4.8V.24H129.79A4.79,4.79,0,0,0,125,5V133.34a4.8,4.8,0,0,0,4.79,4.8h94.33a4.8,4.8,0,0,0,4.79-4.8V37.79ZM151.62,28.2h20a4.8,4.8,0,0,1,0,9.59h-20a4.8,4.8,0,0,1,0-9.59Zm50.67,86.16H151.62a4.8,4.8,0,0,1,0-9.59h50.67a4.8,4.8,0,0,1,0,9.59Zm0-25.5H151.62a4.8,4.8,0,0,1,0-9.59h50.67a4.8,4.8,0,0,1,0,9.59Zm0-25.54H151.62a4.8,4.8,0,0,1,0-9.59h50.67a4.8,4.8,0,0,1,0,9.59Z"/><path class="cls-1" d="M227.5,27.21,201.93,1.64a4.82,4.82,0,0,0-1-.74V28.21h27.3A4.8,4.8,0,0,0,227.5,27.21Z"/><path class="cls-1" d="M323.54,80.44,298,54.87a5.18,5.18,0,0,0-1-.74v27.3h27.31A5.11,5.11,0,0,0,323.54,80.44Z"/><path class="cls-1" d="M273.85,177.94A29.32,29.32,0,0,1,325,158.36v-67H292.24a4.8,4.8,0,0,1-4.79-4.8V53.85h-51.1v83.83a6.19,6.19,0,0,1-6.45,6.23h-8.81v43a4.79,4.79,0,0,0,4.79,4.79H277.3A29.16,29.16,0,0,1,273.85,177.94ZM247.71,81.81h20a4.8,4.8,0,0,1,0,9.59h-20a4.8,4.8,0,0,1,0-9.59Zm0,25.53h50.67a4.8,4.8,0,0,1,0,9.59H247.71a4.8,4.8,0,0,1,0-9.59Zm0,25.54h50.67a4.79,4.79,0,1,1,0,9.58H247.71a4.79,4.79,0,0,1,0-9.58ZM266,168H247.71a4.8,4.8,0,0,1,0-9.59H266a4.8,4.8,0,0,1,0,9.59Z"/><path class="cls-2" d="M303.17,156.11A21.83,21.83,0,1,0,325,177.94,21.82,21.82,0,0,0,303.17,156.11Zm9.16,26.62H308v4.36a4.8,4.8,0,0,1-9.59,0v-4.36H294a4.8,4.8,0,0,1,0-9.59h4.36v-4.35a4.8,4.8,0,1,1,9.59,0v4.35h4.36a4.8,4.8,0,0,1,0,9.59Z"/><text class="cls-3" transform="translate(9.58 234.71)">D<tspan class="cls-4" x="28.36" y="0">a</tspan><tspan class="cls-5" x="49.28" y="0">t</tspan><tspan class="cls-6" x="64.68" y="0">os </tspan><tspan class="cls-5" x="114.92" y="0">c</tspan><tspan class="cls-6" x="134.12" y="0">ompleme</tspan><tspan class="cls-7" x="308.24" y="0">n</tspan><tspan class="cls-5" x="331.56" y="0">t</tspan><tspan x="346.96" y="0">arios</tspan></text></svg>