<?xml version="1.0" encoding="utf-8"?>
<!-- Generator: Adobe Illustrator 24.0.1, SVG Export Plug-In . SVG Version: 6.00 Build 0)  -->
<svg version="1.1" id="Layer_1" xmlns="http://www.w3.org/2000/svg" xmlns:xlink="http://www.w3.org/1999/xlink" x="0px" y="0px"
	 viewBox="0 0 250 200" style="enable-background:new 0 0 250 200;" xml:space="preserve">
<style type="text/css">
	.st0{fill:#14A0DE;}
	.st1{fill:#EC111A;}
</style>
<title>Scotia-Icons_Txt</title>
<path class="st0" d="M215.05,59.25h-8.74v80.3c0.01,6.39-5.17,11.57-11.56,11.58c0,0-0.01,0-0.01,0H56.56v9.66
	c0,6.39,5.18,11.57,11.57,11.57h0h146.92c6.39,0,11.57-5.18,11.57-11.57v0v-90C226.6,64.41,221.43,59.25,215.05,59.25z"/>
<path class="st1" d="M181.87,27.64H35c-6.39,0-11.57,5.18-11.57,11.57v90c0.02,6.38,5.19,11.54,11.57,11.54h146.87
	c6.39,0,11.57-5.18,11.57-11.57v0v-90C193.42,32.8,188.25,27.64,181.87,27.64z M73.64,48.28c10.33,0,18.7,8.37,18.7,18.7
	s-8.37,18.7-18.7,18.7c-10.32,0-18.69-8.36-18.7-18.68c-0.01-10.33,8.35-18.71,18.68-18.72C73.63,48.28,73.63,48.28,73.64,48.28z
	 M73.64,120.99c-29.86,0-29.86-2.68-29.86-2.68c0-10.39,5.31-28.76,13.35-34.11c9.22,8.85,23.78,8.85,33,0
	c8.05,5.35,13.36,23.72,13.36,34.11c0.01,0,0.01,2.69-29.85,2.69V120.99z M167.73,116.77h-48.94c-3.04,0-5.5-2.46-5.5-5.5
	s2.46-5.5,5.5-5.5h48.94c3.04,0,5.5,2.46,5.5,5.5S170.77,116.77,167.73,116.77z M167.73,89.67h-48.94c-3.04,0-5.5-2.46-5.5-5.5
	s2.46-5.5,5.5-5.5h48.94c3.04,0,5.5,2.46,5.5,5.5S170.77,89.67,167.73,89.67z M167.73,62.58h-48.94c-3.02-0.13-5.37-2.69-5.24-5.71
	c0.12-2.84,2.4-5.12,5.24-5.24h48.94c3.02,0.13,5.37,2.69,5.24,5.71C172.85,60.18,170.57,62.46,167.73,62.58z"/>
</svg>
