<svg id="Layer_1" data-name="Layer 1" xmlns="http://www.w3.org/2000/svg" viewBox="0 0 450 295"><defs><style>.cls-1{fill:#14a0de;}.cls-2{fill:#ec111a;}.cls-3{font-size:40px;fill:#333;font-family:Scotia-Bold, Scotia;font-weight:700;}.cls-4{letter-spacing:-0.02em;}.cls-5{letter-spacing:-0.01em;}.cls-6{letter-spacing:-0.02em;}.cls-7{letter-spacing:-0.02em;}.cls-8{letter-spacing:-0.01em;}.cls-9{letter-spacing:0em;}</style></defs><title>Scotia-Icons_Txt</title><path class="cls-1" d="M315.05,59.25h-8.74v80.3a11.57,11.57,0,0,1-11.57,11.58H156.56v9.66a11.57,11.57,0,0,0,11.57,11.57H315.05a11.57,11.57,0,0,0,11.57-11.57v-90A11.57,11.57,0,0,0,315.05,59.25Z"/><path class="cls-2" d="M281.87,27.64H135a11.57,11.57,0,0,0-11.57,11.57v90A11.57,11.57,0,0,0,135,140.75H281.87a11.57,11.57,0,0,0,11.57-11.57v-90A11.57,11.57,0,0,0,281.87,27.64ZM173.64,48.28A18.7,18.7,0,1,1,154.94,67,18.7,18.7,0,0,1,173.64,48.28Zm0,72.71c-29.86,0-29.86-2.68-29.86-2.68,0-10.39,5.31-28.76,13.35-34.11a23.83,23.83,0,0,0,33,0c8.05,5.35,13.36,23.72,13.36,34.11C203.5,118.31,203.5,121,173.64,121Zm94.09-4.22H218.79a5.48,5.48,0,0,1,0-11h48.94a5.48,5.48,0,0,1,0,11Zm0-27.1H218.79a5.48,5.48,0,0,1,0-11h48.94a5.48,5.48,0,0,1,0,11Zm0-27.09H218.79a5.48,5.48,0,0,1,0-10.95h48.94a5.48,5.48,0,0,1,0,10.95Z"/><text class="cls-3" transform="translate(67.66 235.71)">D<tspan class="cls-4" x="28.36" y="0">a</tspan><tspan class="cls-5" x="49.28" y="0">t</tspan><tspan x="64.68" y="0">os pe</tspan><tspan class="cls-6" x="161.12" y="0">r</tspan><tspan x="176.76" y="0">sonales</tspan><tspan x="49.4" y="48">y de c</tspan><tspan class="cls-7" x="154.08" y="48">r</tspan><tspan x="169.52" y="48">édi</tspan><tspan class="cls-8" x="226.28" y="48">t</tspan><tspan class="cls-9" x="241.68" y="48">o</tspan></text></svg>