<svg id="Layer_1" data-name="Layer 1" xmlns="http://www.w3.org/2000/svg" viewBox="0 0 200 200"><defs><style>.cls-1{fill:#009dd6;}.cls-2{fill:#ec111a;}</style></defs><title>Scotia-Icons-NO_NAME</title><path class="cls-1" d="M100,0A60.27,60.27,0,0,0,39.73,60.27c0,33.28,48.86,110.67,60.27,110.67,11,0,60.27-77.39,60.27-110.67A60.27,60.27,0,0,0,100,0Zm0,109.32a44.45,44.45,0,1,1,44.45-44.44A44.45,44.45,0,0,1,100,109.32Z"/><path class="cls-2" d="M131.62,59.6,101,29.18a2.75,2.75,0,0,0-4.22,0L66.05,59.6c-1.79,2-.48,5.43,2.1,5.43h4.48V92.17h16.6V70.77h18.23v21.4h17.63V65h4.42C132.09,65,133.41,61.64,131.62,59.6Z"/><path class="cls-2" d="M124.34,157.79l0,.08a4.33,4.33,0,0,0,1.75,6.4c6.65,3,10.53,7.09,10.53,10.91,0,7.53-15.08,15.92-36.71,15.92s-36.72-8.39-36.72-15.92c0-3.79,3.83-7.8,10.38-10.84A4.34,4.34,0,0,0,75.26,158l-.05-.08a4.39,4.39,0,0,0-5.52-1.45c-9.52,4.52-15.45,11.19-15.45,18.76,0,13.92,20,24.82,45.62,24.82s45.61-10.9,45.61-24.82c0-7.62-6-14.32-15.63-18.84A4.38,4.38,0,0,0,124.34,157.79Z"/></svg>