<svg id="Layer_1" data-name="Layer 1" xmlns="http://www.w3.org/2000/svg" viewBox="0 0 200 200"><defs><style>.cls-1{fill:#ec111a;}.cls-2{fill:#009dd6;}</style></defs><title>Scotia-Icons-NO_NAME</title><path class="cls-1" d="M83.53,62.64a5.85,5.85,0,0,0,5.84,5.84h21.44a5.86,5.86,0,0,0,0-11.72H89.37A5.86,5.86,0,0,0,83.53,62.64Z"/><path class="cls-1" d="M110.81,82.66H89.37a5.86,5.86,0,0,0,0,11.72h21.44a5.86,5.86,0,0,0,0-11.72Z"/><path class="cls-1" d="M110.81,108.55H89.37a5.87,5.87,0,0,0,0,11.73h21.44a5.87,5.87,0,0,0,0-11.73Z"/><path class="cls-1" d="M110.81,134.45H89.37a5.86,5.86,0,0,0,0,11.72h21.44a5.86,5.86,0,0,0,0-11.72Z"/><path class="cls-1" d="M42.78,94.38H69.44a5.48,5.48,0,0,0,5.48-5.48V62.24a5.48,5.48,0,0,0-5.48-5.48H42.78a5.48,5.48,0,0,0-5.48,5.48V88.9A5.48,5.48,0,0,0,42.78,94.38ZM45.6,73a3.64,3.64,0,0,1,5.13,0l2.71,2.71,8.05-8a3.64,3.64,0,0,1,5.13,0,3.62,3.62,0,0,1,0,5.12h0L56,83.44a3.63,3.63,0,0,1-5.13,0L45.6,78.16A3.63,3.63,0,0,1,45.6,73Z"/><path class="cls-1" d="M42.78,146.17H69.44a5.48,5.48,0,0,0,5.48-5.48V114a5.48,5.48,0,0,0-5.48-5.49H42.78A5.48,5.48,0,0,0,37.3,114v26.65A5.48,5.48,0,0,0,42.78,146.17Zm2.82-21.33a3.64,3.64,0,0,1,5.13,0l2.71,2.72,8.05-8a3.62,3.62,0,1,1,5.13,5.12h0L56,135.23a3.63,3.63,0,0,1-5.13,0L45.6,130A3.63,3.63,0,0,1,45.6,124.84Z"/><path class="cls-2" d="M22.18,158.31V41.88a3.75,3.75,0,0,1,3.72-3.73h8.7V24.6H12.35a3.75,3.75,0,0,0-3.72,3.73V171.86a3.65,3.65,0,0,0,3.72,3.61H99.67l.23-2.75a40.72,40.72,0,0,1,2.88-10.8H25.9A3.67,3.67,0,0,1,22.18,158.31Z"/><path class="cls-2" d="M131.78,41.88V96.39A34.13,34.13,0,0,1,145.33,91V28.33a3.65,3.65,0,0,0-3.61-3.73H119.36V38.15h8.81A3.65,3.65,0,0,1,131.78,41.88Z"/><path class="cls-2" d="M48.54,41h56.87A2.61,2.61,0,0,0,108,38.43V23.49a2.61,2.61,0,0,0-2.61-2.61H90.9v-6.5c0-6.65-4.47-12.71-11-14.07A14,14,0,0,0,63.05,13.92v7H48.54a2.61,2.61,0,0,0-2.61,2.61V38.43A2.61,2.61,0,0,0,48.54,41ZM77,8.84a5.08,5.08,0,1,1-5.08,5.08A5.09,5.09,0,0,1,77,8.84Z"/><path class="cls-2" d="M189.91,174.12a29.11,29.11,0,0,0-20.32-24.3,2.09,2.09,0,0,0-2.55,1.33L156.1,182.44,153.6,162h1.67a1.82,1.82,0,0,0,1.82-1.83v-5.62a1.82,1.82,0,0,0-1.82-1.83h-9.16a1.83,1.83,0,0,0-1.83,1.83v5.62a1.83,1.83,0,0,0,1.83,1.83h1.67l-2.51,20.45-10.93-31.29a2.09,2.09,0,0,0-2.55-1.33,29.11,29.11,0,0,0-20.32,24.3L110,190.89a8.34,8.34,0,0,0,8.31,9L183,200a8.34,8.34,0,0,0,8.32-9.05Z"/><circle class="cls-2" cx="150.75" cy="124.39" r="22.19"/></svg>