<?xml version="1.0" encoding="utf-8"?>
<!-- Generator: Adobe Illustrator 24.0.1, SVG Export Plug-In . SVG Version: 6.00 Build 0)  -->
<svg version="1.1" id="Layer_1" xmlns="http://www.w3.org/2000/svg" xmlns:xlink="http://www.w3.org/1999/xlink" x="0px" y="0px"
	 viewBox="0 0 250 200" style="enable-background:new 0 0 250 200;" xml:space="preserve">
<style type="text/css">
	.st0{fill:#009DD6;}
	.st1{fill:#EC111A;}
</style>
<title>Scotia-Icons_Txt</title>
<path class="st0" d="M125,0C91.71,0,64.73,26.98,64.73,60.27l0,0c0,33.28,48.86,110.67,60.27,110.67c11,0,60.27-77.39,60.27-110.67
	C185.27,26.98,158.29,0,125,0z M125,109.32c-24.55,0-44.45-19.9-44.45-44.45c0-24.55,19.9-44.45,44.45-44.45
	c24.55,0,44.45,19.9,44.45,44.45c0,0,0,0.01,0,0.01C169.44,89.43,149.55,109.32,125,109.32z"/>
<path class="st1" d="M156.62,59.6L126,29.18c-0.97-1.17-2.71-1.32-3.87-0.35c-0.13,0.1-0.24,0.22-0.35,0.35L91.05,59.6
	c-1.79,2-0.48,5.43,2.1,5.43h4.48v27.14h16.6v-21.4h18.23v21.4h17.63V65h4.42C157.09,65,158.41,61.64,156.62,59.6z"/>
<path class="st1" d="M149.34,157.79l-0.05,0.08c-1.36,1.97-0.87,4.66,1.09,6.03c0.21,0.14,0.43,0.27,0.66,0.37
	c6.65,3,10.53,7.09,10.53,10.91c0,7.53-15.08,15.92-36.71,15.92s-36.72-8.39-36.72-15.92c0-3.79,3.83-7.8,10.38-10.84
	c2.17-1.01,3.11-3.6,2.1-5.77c-0.1-0.22-0.22-0.42-0.36-0.62v-0.08c-1.23-1.78-3.57-2.39-5.52-1.45
	c-9.52,4.52-15.45,11.19-15.45,18.76c0,13.92,20,24.82,45.62,24.82s45.61-10.9,45.61-24.82c0-7.62-6-14.32-15.63-18.84
	C152.94,155.38,150.57,155.99,149.34,157.79z"/>
</svg>
