<svg id="Layer_1" data-name="Layer 1" xmlns="http://www.w3.org/2000/svg" viewBox="0 0 200 200"><defs><style>.cls-1{fill:#009dd6;}.cls-2{fill:#ec111a;}</style></defs><title>Scotia-Icons-NO_NAME</title><path class="cls-1" d="M71.15,37.79A4.8,4.8,0,0,1,66.36,33V.24H4.79A4.79,4.79,0,0,0,0,5V133.34a4.8,4.8,0,0,0,4.79,4.8H99.12a4.8,4.8,0,0,0,4.79-4.8V37.79ZM26.62,28.2h20a4.8,4.8,0,0,1,0,9.59h-20a4.8,4.8,0,0,1,0-9.59Zm50.67,86.16H26.62a4.8,4.8,0,0,1,0-9.59H77.29a4.8,4.8,0,0,1,0,9.59Zm0-25.5H26.62a4.8,4.8,0,0,1,0-9.59H77.29a4.8,4.8,0,0,1,0,9.59Zm0-25.54H26.62a4.8,4.8,0,0,1,0-9.59H77.29a4.8,4.8,0,0,1,0,9.59Z"/><path class="cls-1" d="M102.5,27.21,76.93,1.64a4.82,4.82,0,0,0-1-.74V28.21h27.3A4.8,4.8,0,0,0,102.5,27.21Z"/><path class="cls-1" d="M198.54,80.44,173,54.87a5.18,5.18,0,0,0-1-.74v27.3h27.31A5.11,5.11,0,0,0,198.54,80.44Z"/><path class="cls-1" d="M148.85,177.94A29.32,29.32,0,0,1,200,158.36v-67H167.24a4.8,4.8,0,0,1-4.79-4.8V53.85h-51.1v83.83a6.19,6.19,0,0,1-6.45,6.23H96.09v43a4.79,4.79,0,0,0,4.79,4.79H152.3A29.16,29.16,0,0,1,148.85,177.94ZM122.71,81.81h20a4.8,4.8,0,0,1,0,9.59h-20a4.8,4.8,0,0,1,0-9.59Zm0,25.53h50.67a4.8,4.8,0,0,1,0,9.59H122.71a4.8,4.8,0,0,1,0-9.59Zm0,25.54h50.67a4.79,4.79,0,1,1,0,9.58H122.71a4.79,4.79,0,1,1,0-9.58ZM141,168H122.71a4.8,4.8,0,0,1,0-9.59H141a4.8,4.8,0,0,1,0,9.59Z"/><path class="cls-2" d="M178.17,156.11A21.83,21.83,0,1,0,200,177.94,21.82,21.82,0,0,0,178.17,156.11Zm9.16,26.62H183v4.36a4.8,4.8,0,0,1-9.59,0v-4.36H169a4.8,4.8,0,0,1,0-9.59h4.36v-4.35a4.8,4.8,0,1,1,9.59,0v4.35h4.36a4.8,4.8,0,0,1,0,9.59Z"/></svg>