<?xml version="1.0" encoding="utf-8"?>
<!-- Generator: Adobe Illustrator 24.0.1, SVG Export Plug-In . SVG Version: 6.00 Build 0)  -->
<svg version="1.1" id="Layer_1" xmlns="http://www.w3.org/2000/svg" xmlns:xlink="http://www.w3.org/1999/xlink" x="0px" y="0px"
	 viewBox="0 0 250 200" style="enable-background:new 0 0 250 200;" xml:space="preserve">
<style type="text/css">
	.st0{fill:#009DD6;}
	.st1{fill:#EC111A;}
</style>
<title>Scotia-Icons_Txt</title>
<path class="st0" d="M88.26,150.35c-1.31,0-2.37-1.06-2.38-2.37v-16.21H55.42c-1.31,0-2.37,1.06-2.37,2.37v63.49
	c0,1.31,1.06,2.37,2.37,2.37h46.67c1.31,0,2.37-1.06,2.37-2.37v-47.28H88.26z M66.26,145.6h9.88c1.31,0.09,2.31,1.22,2.22,2.53
	c-0.08,1.19-1.03,2.14-2.22,2.22h-9.88c-1.31-0.09-2.31-1.22-2.22-2.53C64.12,146.63,65.07,145.68,66.26,145.6z M91.33,188.24H66.22
	c-1.31-0.09-2.31-1.22-2.22-2.53c0.08-1.19,1.03-2.14,2.22-2.22h25.07c1.31,0.09,2.31,1.22,2.22,2.53
	c-0.08,1.19-1.03,2.14-2.22,2.22H91.33z M91.33,175.62H66.22c-1.31-0.09-2.31-1.22-2.22-2.53c0.08-1.19,1.03-2.14,2.22-2.22h25.07
	c1.31,0.09,2.31,1.22,2.22,2.53c-0.08,1.19-1.03,2.14-2.22,2.22H91.33z M91.33,162.98H66.22c-1.31,0-2.37-1.06-2.37-2.37
	c0-1.31,1.06-2.37,2.37-2.37h25.07c1.31,0,2.37,1.06,2.37,2.37c0,1.31-1.06,2.37-2.37,2.37H91.33z"/>
<path class="st0" d="M103.77,145.11l-12.65-12.65c-0.15-0.14-0.32-0.26-0.5-0.36v13.51h13.51
	C104.03,145.43,103.91,145.26,103.77,145.11z"/>
<path class="st0" d="M186.57,150.35c-1.3,0-2.36-1.05-2.37-2.35v-16.23h-30.46c-1.31,0-2.37,1.06-2.37,2.37v63.49
	c0,1.31,1.06,2.37,2.37,2.37h46.67c1.31,0,2.37-1.06,2.37-2.37v-47.28H186.57z M164.57,145.6h9.87c1.31,0.09,2.31,1.22,2.22,2.53
	c-0.08,1.19-1.03,2.14-2.22,2.22h-9.87c-1.31-0.09-2.31-1.22-2.22-2.53C162.43,146.63,163.38,145.68,164.57,145.6z M189.64,188.24
	h-25.1c-1.31-0.09-2.31-1.22-2.22-2.53c0.08-1.19,1.03-2.14,2.22-2.22h25.07c1.31,0.09,2.31,1.22,2.22,2.53
	c-0.08,1.19-1.03,2.14-2.22,2.22H189.64z M189.64,175.62h-25.1c-1.31-0.09-2.31-1.22-2.22-2.53c0.08-1.19,1.03-2.14,2.22-2.22h25.07
	c1.31,0.09,2.31,1.22,2.22,2.53c-0.08,1.19-1.03,2.14-2.22,2.22H189.64z M189.64,162.98h-25.1c-1.31,0-2.37-1.06-2.37-2.37
	c0-1.31,1.06-2.37,2.37-2.37h25.07c1.31,0,2.37,1.06,2.37,2.37c0,1.31-1.06,2.37-2.37,2.37l0,0H189.64z"/>
<path class="st0" d="M202.08,145.11l-12.65-12.65c-0.15-0.14-0.31-0.26-0.49-0.36v13.51h13.51
	C202.35,145.43,202.23,145.26,202.08,145.11z"/>
<path class="st0" d="M193.38,48.79c4.17-22.41-10.61-43.97-33.02-48.14c-16.01-2.98-32.28,3.73-41.54,17.14
	c-3.42-1.04-6.98-1.57-10.56-1.57C90.02,16.21,74.5,29.54,71.77,47.58c-1.7-0.29-3.42-0.44-5.15-0.45
	c-17.6,0-31.86,14.26-31.86,31.86c0,16.32,12.34,30.01,28.57,31.69h32.21l21.85-29.2c3.16-4.21,9.12-5.06,13.33-1.9
	c0.72,0.54,1.36,1.18,1.9,1.9l21.84,29.2h32.27c17.49-1.8,30.21-17.44,28.41-34.94c-1.29-12.5-9.81-23.08-21.76-26.99V48.79z"/>
<path class="st1" d="M150.34,122.86h-14v21.7c0,0.98-0.79,1.77-1.77,1.78H115.4c-0.98-0.01-1.77-0.8-1.77-1.78v-21.7h-14
	c-0.98-0.01-1.78-0.81-1.77-1.79c0-0.38,0.12-0.75,0.35-1.05l25.34-33.87c0.58-0.78,1.69-0.95,2.48-0.36
	c0.14,0.1,0.26,0.23,0.36,0.36L151.76,120c0.6,0.78,0.45,1.9-0.33,2.49C151.11,122.73,150.73,122.86,150.34,122.86z"/>
</svg>
