<?xml version="1.0" encoding="utf-8"?>
<!-- Generator: Adobe Illustrator 24.0.1, SVG Export Plug-In . SVG Version: 6.00 Build 0)  -->
<svg version="1.1" id="Layer_1" xmlns="http://www.w3.org/2000/svg" xmlns:xlink="http://www.w3.org/1999/xlink" x="0px" y="0px"
	 viewBox="0 0 250 200" style="enable-background:new 0 0 250 200;" xml:space="preserve">
<style type="text/css">
	.st0{fill:#009DD6;}
	.st1{fill:#EC111A;}
</style>
<title>Scotia-Icons_Txt</title>
<path class="st0" d="M219.38,160.94H203.1V60.66c0.01-3.11-2.51-5.64-5.62-5.66h-24.21c-3.11,0.04-5.61,2.57-5.62,5.68v100.26
	h-16.53v-63c-8.47,9.97-20.91,15.7-34,15.66c-0.5,0.01-1-0.01-1.5-0.06v47.43h-16.6v-25.4c0.02-3.11-2.48-5.66-5.6-5.68
	c0,0-0.01,0-0.01,0h-24.1c-3.11,0.01-5.63,2.54-5.62,5.66c0,0.01,0,0.01,0,0.02v25.4H36.23v-17.69h10.49c3.1,0,5.62-2.52,5.62-5.62
	c0-3.1-2.52-5.62-5.62-5.62H36.23v-17.66h10.49c3.1-0.13,5.51-2.75,5.38-5.85c-0.12-2.92-2.46-5.25-5.38-5.38H36.23V85.43h10.49
	c3.1-0.13,5.51-2.75,5.38-5.85c-0.12-2.92-2.46-5.25-5.38-5.38H36.23V56.54h10.49c3.1,0,5.62-2.52,5.62-5.62
	c0-3.1-2.52-5.62-5.62-5.62H36.23V33.45c0.13-3.1-2.28-5.72-5.38-5.85c-3.1-0.13-5.72,2.28-5.85,5.38c-0.01,0.16-0.01,0.32,0,0.47
	v133.1c-0.01,3.09,2.49,5.61,5.58,5.62c0.01,0,0.03,0,0.04,0h188.76c3.1,0.13,5.72-2.28,5.85-5.38c0.13-3.1-2.28-5.72-5.38-5.85
	C219.7,160.93,219.54,160.93,219.38,160.94z"/>
<path class="st1" d="M77.24,115.8c1.9,0,3.73-0.75,5.07-2.1l18.53-18.52c14.77,9.18,34.19,4.64,43.37-10.13
	c9.18-14.77,4.64-34.19-10.13-43.37s-34.19-4.64-43.37,10.13C84.4,61.97,84.39,74.83,90.68,85l-18.52,18.53
	c-2.8,2.81-2.79,7.35,0.01,10.15c1.34,1.34,3.17,2.09,5.07,2.1L77.24,115.8z M117.16,51.8c9.31-0.01,16.86,7.54,16.87,16.85
	s-7.54,16.86-16.85,16.87c-9.3,0.01-16.85-7.52-16.87-16.82c0.02-9.3,7.55-16.84,16.85-16.86V51.8z"/>
</svg>
