<svg id="Layer_1" data-name="Layer 1" xmlns="http://www.w3.org/2000/svg" viewBox="0 0 450 295"><defs><style>.cls-1{fill:#009dd6;}.cls-2{fill:#ec111a;}.cls-3{font-size:40px;fill:#333;font-family:Scotia-Bold, Scotia;font-weight:700;}.cls-4{letter-spacing:-0.02em;}.cls-5{letter-spacing:-0.01em;}.cls-6{letter-spacing:0em;}.cls-7{letter-spacing:-0.02em;}.cls-8{letter-spacing:-0.01em;}</style></defs><title>Scotia-Icons_Txt</title><path class="cls-1" d="M188.26,150.35a2.38,2.38,0,0,1-2.38-2.37V131.77H155.42a2.37,2.37,0,0,0-2.37,2.37v63.49a2.37,2.37,0,0,0,2.37,2.37h46.67a2.37,2.37,0,0,0,2.37-2.37V150.35Zm-22-4.75h9.88a2.38,2.38,0,0,1,0,4.75h-9.88a2.38,2.38,0,0,1,0-4.75Zm25.07,42.64H166.22a2.38,2.38,0,0,1,0-4.75h25.07a2.38,2.38,0,0,1,0,4.75Zm0-12.62H166.22a2.38,2.38,0,0,1,0-4.75h25.07a2.38,2.38,0,0,1,0,4.75Zm0-12.64H166.22a2.37,2.37,0,0,1,0-4.74h25.07a2.37,2.37,0,1,1,0,4.74Z"/><path class="cls-1" d="M203.77,145.11l-12.65-12.65a2.54,2.54,0,0,0-.5-.36v13.51h13.51A2.54,2.54,0,0,0,203.77,145.11Z"/><path class="cls-1" d="M286.57,150.35A2.37,2.37,0,0,1,284.2,148V131.77H253.74a2.37,2.37,0,0,0-2.37,2.37v63.49a2.37,2.37,0,0,0,2.37,2.37h46.67a2.37,2.37,0,0,0,2.37-2.37V150.35Zm-22-4.75h9.87a2.38,2.38,0,0,1,0,4.75h-9.87a2.38,2.38,0,0,1,0-4.75Zm25.07,42.64H264.54a2.38,2.38,0,0,1,0-4.75h25.07a2.38,2.38,0,0,1,0,4.75Zm0-12.62H264.54a2.38,2.38,0,0,1,0-4.75h25.07a2.38,2.38,0,0,1,0,4.75Zm0-12.64H264.54a2.37,2.37,0,0,1,0-4.74h25.07a2.37,2.37,0,1,1,0,4.74Z"/><path class="cls-1" d="M302.08,145.11l-12.65-12.65a2.21,2.21,0,0,0-.49-.36v13.51h13.51A2.23,2.23,0,0,0,302.08,145.11Z"/><path class="cls-1" d="M293.38,48.79a41.28,41.28,0,0,0-74.56-31,36.41,36.41,0,0,0-10.56-1.57,36.89,36.89,0,0,0-36.49,31.36,31.4,31.4,0,0,0-5.15-.45,31.86,31.86,0,0,0-3.29,63.55h32.21l21.85-29.2a9.52,9.52,0,0,1,15.23,0l21.84,29.2h32.27a31.84,31.84,0,0,0,6.65-61.93Z"/><path class="cls-2" d="M250.34,122.86h-14v21.7a1.78,1.78,0,0,1-1.77,1.78H215.4a1.78,1.78,0,0,1-1.77-1.78v-21.7h-14a1.78,1.78,0,0,1-1.42-2.84l25.34-33.87a1.77,1.77,0,0,1,2.84,0L251.76,120A1.78,1.78,0,0,1,250.34,122.86Z"/><text class="cls-3" transform="translate(28.5 234.71)">Ca<tspan class="cls-4" x="47.68" y="0">r</tspan><tspan class="cls-5" x="63.32" y="0">g</tspan><tspan class="cls-6" x="84.88" y="0">a de docume</tspan><tspan class="cls-7" x="318.92" y="0">n</tspan><tspan class="cls-8" x="342.24" y="0">t</tspan><tspan x="357.64" y="0">os</tspan></text></svg>