<svg id="Layer_1" data-name="Layer 1" xmlns="http://www.w3.org/2000/svg" viewBox="0 0 450 295"><defs><style>.cls-1{fill:#ec111a;}.cls-2{fill:#009dd6;}.cls-3{font-size:40px;fill:#333;font-family:Scotia-Bold, Scotia;font-weight:700;}.cls-4{letter-spacing:-0.01em;}.cls-5{letter-spacing:0em;}.cls-6{letter-spacing:-0.02em;}</style></defs><title>Scotia-Icons_Txt</title><path class="cls-1" d="M163.47,90.62a15.37,15.37,0,0,0,15.35-15.35,15.07,15.07,0,0,0-.95-5.13l19.55-13.88a15,15,0,0,0,19.16,0l19.55,13.88a15.07,15.07,0,0,0-.95,5.13,15.35,15.35,0,1,0,30.7,0,15.07,15.07,0,0,0-.95-5.13l19.55-13.88a15.58,15.58,0,1,0-4.83-6.77L260.11,63.37a15,15,0,0,0-19.16,0L221.4,49.49a15.07,15.07,0,0,0,.95-5.13,15.35,15.35,0,0,0-30.7,0,15.07,15.07,0,0,0,.95,5.13L173.05,63.37a15.32,15.32,0,1,0-9.58,27.25Z"/><path class="cls-2" d="M320,161h-11.8V79.54a4.16,4.16,0,0,0-4.16-4.16h-20a4.15,4.15,0,0,0-4.15,4.16V161H264.68V110.45a4.16,4.16,0,0,0-4.16-4.16h-20a4.16,4.16,0,0,0-4.16,4.16V161H221.15V79.54A4.16,4.16,0,0,0,217,75.38H197a4.16,4.16,0,0,0-4.16,4.16V161H177.62V110.45a4.16,4.16,0,0,0-4.16-4.16h-20a4.16,4.16,0,0,0-4.16,4.16V161H135V43.28a5,5,0,1,0-10,0V166a5,5,0,0,0,5,5H320a5,5,0,0,0,0-10Z"/><text class="cls-3" transform="translate(147.06 234.71)">His<tspan class="cls-4" x="57.8" y="0">t</tspan><tspan class="cls-5" x="73.2" y="0">orial</tspan><tspan x="-8.02" y="48">c</tspan><tspan class="cls-6" x="11.58" y="48">r</tspan><tspan x="27.02" y="48">editicio</tspan></text></svg>