<svg id="Layer_1" data-name="Layer 1" xmlns="http://www.w3.org/2000/svg" viewBox="0 0 200 200"><defs><style>.cls-1{fill:#009dd6;}.cls-2{fill:#ec111a;}</style></defs><title>Scotia-Icons-NO_NAME</title><path class="cls-1" d="M194.38,160.94H178.1V60.66A5.65,5.65,0,0,0,172.48,55H148.27a5.69,5.69,0,0,0-5.62,5.68V160.94H126.12v-63a44.42,44.42,0,0,1-33.95,15.66,12.54,12.54,0,0,1-1.5-.06v47.43H74.07v-25.4a5.64,5.64,0,0,0-5.61-5.68H44.31a5.64,5.64,0,0,0-5.62,5.68v25.4H11.23V143.28H21.72a5.62,5.62,0,0,0,0-11.24H11.23V114.38H21.72a5.62,5.62,0,0,0,0-11.23H11.23V85.43H21.72a5.62,5.62,0,0,0,0-11.23H11.23V56.54H21.72a5.62,5.62,0,0,0,0-11.24H11.23V33.45A5.62,5.62,0,1,0,0,33.45v133.1a5.6,5.6,0,0,0,5.62,5.62H194.38a5.62,5.62,0,1,0,0-11.23Z"/><path class="cls-2" d="M52.24,115.8a7.16,7.16,0,0,0,5.07-2.1L75.84,95.18A31.49,31.49,0,1,0,65.68,85L47.16,103.55a7.18,7.18,0,0,0,5.08,12.25Zm39.92-64A16.86,16.86,0,1,1,75.31,68.7,16.89,16.89,0,0,1,92.16,51.84Z"/></svg>