<svg id="Layer_1" data-name="Layer 1" xmlns="http://www.w3.org/2000/svg" viewBox="0 0 200 200"><defs><style>.cls-1{fill:#009dd6;}.cls-2{fill:#ec111a;}</style></defs><title>Scotia-Icons-NO_NAME</title><path class="cls-1" d="M198.91,151.67a11.06,11.06,0,0,0-9.76-6.18l-35.66-.24a21.63,21.63,0,0,1-23.24,16.15l-1.42-.14A225.45,225.45,0,0,1,90.28,154L80.2,151.21a6.21,6.21,0,0,1-4.32-7.67,6.24,6.24,0,0,1,7.67-4.32l10.62,3a207.54,207.54,0,0,0,35.12,6.63l2.21.21a9.29,9.29,0,0,0,9.66-6,9.18,9.18,0,0,0-.27-7.16,9.5,9.5,0,0,0-5.3-4.84L83.88,112.48a27.26,27.26,0,0,0-17.64-.25L4.62,134.76a7,7,0,0,0-3.81,9.86l19.26,36.65a7,7,0,0,0,8.68,3.31l15-5.55a9.79,9.79,0,0,1,7.35.19l38.3,16.45a31.16,31.16,0,0,0,23.08.61l80.41-29.63a10.93,10.93,0,0,0,6.06-15Z"/><path class="cls-2" d="M126.13,1.8a54.09,54.09,0,1,0,54.09,54.08A54.15,54.15,0,0,0,126.13,1.8Zm4.63,80.92v6.81a1.32,1.32,0,0,1-1.32,1.31h-6.62a1.31,1.31,0,0,1-1.31-1.31V82.9a13.83,13.83,0,0,1-12.89-12.37,1.3,1.3,0,0,1,1.32-1.39h6.7a1.28,1.28,0,0,1,1.26,1,4.59,4.59,0,0,0,4.49,3.62h5.86a6.88,6.88,0,0,0,7-5.92,6.62,6.62,0,0,0-6.58-7.3h-4.31c-8.28,0-15.68-6-16.49-14.27A15.87,15.87,0,0,1,121.51,29V22.24a1.31,1.31,0,0,1,1.31-1.31h6.62a1.32,1.32,0,0,1,1.32,1.31v6.63a13.84,13.84,0,0,1,12.89,12.37,1.31,1.31,0,0,1-1.32,1.39h-6.71a1.26,1.26,0,0,1-1.25-1,4.61,4.61,0,0,0-4.5-3.63H124A6.91,6.91,0,0,0,117,44a6.63,6.63,0,0,0,6.58,7.31h5a15.87,15.87,0,0,1,15.78,17.45C143.71,76,137.83,81.54,130.76,82.72Z"/></svg>