<svg id="Layer_1" data-name="Layer 1" xmlns="http://www.w3.org/2000/svg" viewBox="0 0 200 200"><defs><style>.cls-1{fill:#ec111a;}.cls-2,.cls-3{fill:none;stroke-linecap:round;stroke-linejoin:round;}.cls-2{stroke:#009dd6;stroke-width:5.38px;}.cls-3{stroke:#14a0de;stroke-width:5.1px;}.cls-4{fill:#14a0de;}</style></defs><title>Scotia-Icons-NO_NAME</title><rect class="cls-1" x="100.99" y="76.29" width="15.41" height="27.41" rx="2.06"/><rect class="cls-1" x="123.61" y="63.27" width="15.41" height="40.44" rx="2.06"/><rect class="cls-1" x="146.23" y="68.24" width="15.41" height="35.47" rx="2.06"/><rect class="cls-1" x="168.86" y="52.63" width="15.41" height="51.08" rx="2.06"/><path class="cls-2" d="M71.88,56.38V32.22A4.31,4.31,0,0,1,76.28,28H195.6a4.31,4.31,0,0,1,4.4,4.22v84.17a4.31,4.31,0,0,1-4.4,4.22H99.16"/><circle class="cls-3" cx="42.52" cy="99.54" r="42.52"/><rect class="cls-4" x="76.48" y="126.42" width="4.5" height="20.19" transform="translate(-72.14 91) rotate(-43.24)"/><path class="cls-4" d="M87.41,139.26l-3,1.13a3.84,3.84,0,0,0-2.16,2l-1.31,2.92a3.87,3.87,0,0,0,.71,4.21l20,21.24a3.85,3.85,0,0,0,5.44.16l4.31-4a3.85,3.85,0,0,0,.17-5.44l-20-21.23A3.85,3.85,0,0,0,87.41,139.26Z"/><path class="cls-1" d="M42.53,73.2A26.67,26.67,0,1,0,69.2,99.87,26.71,26.71,0,0,0,42.53,73.2Zm2.28,39.91v3.35a.65.65,0,0,1-.65.65H40.89a.65.65,0,0,1-.64-.65v-3.27a6.81,6.81,0,0,1-6.36-6.1.64.64,0,0,1,.65-.68h3.31a.63.63,0,0,1,.62.47,2.26,2.26,0,0,0,2.21,1.79h2.89A3.4,3.4,0,0,0,47,105.75a3.27,3.27,0,0,0-3.25-3.6H41.64a8,8,0,0,1-8.13-7,7.82,7.82,0,0,1,6.74-8.52V83.28a.65.65,0,0,1,.64-.65h3.27a.65.65,0,0,1,.65.65v3.27a6.82,6.82,0,0,1,6.35,6.1.65.65,0,0,1-.65.69h-3.3a.63.63,0,0,1-.62-.48,2.27,2.27,0,0,0-2.22-1.79H41.48A3.4,3.4,0,0,0,38,94a3.27,3.27,0,0,0,3.25,3.6h2.47a7.84,7.84,0,0,1,7.79,8.6A8,8,0,0,1,44.81,113.11Z"/></svg>