<?xml version="1.0" encoding="utf-8"?>
<!-- Generator: Adobe Illustrator 24.0.1, SVG Export Plug-In . SVG Version: 6.00 Build 0)  -->
<svg version="1.1" id="Layer_1" xmlns="http://www.w3.org/2000/svg" xmlns:xlink="http://www.w3.org/1999/xlink" x="0px" y="0px"
	 viewBox="0 0 250 200" style="enable-background:new 0 0 250 200;" xml:space="preserve">
<style type="text/css">
	.st0{fill:#009DD6;}
	.st1{fill:#EC111A;}
</style>
<title>Scotia-Icons_Txt</title>
<path class="st0" d="M223.91,151.67c-1.83-3.73-5.6-6.12-9.76-6.18l-35.66-0.24c-2.66,10.41-12.56,17.28-23.24,16.15l-1.42-0.14
	c-13.04-1.3-25.94-3.72-38.55-7.26l-10.08-2.81c-3.31-0.92-5.24-4.34-4.33-7.64c0-0.01,0.01-0.02,0.01-0.03
	c0.93-3.31,4.36-5.24,7.67-4.32l10.62,3c11.49,3.22,23.24,5.43,35.12,6.63l2.21,0.21c4.21,0.43,8.18-2.03,9.66-6
	c0.88-2.32,0.79-4.91-0.27-7.16c-1.07-2.24-2.97-3.98-5.3-4.84l-51.71-18.54c-5.69-2.04-11.89-2.12-17.64-0.25l-61.62,22.53
	c-3.64,1.31-5.52,5.32-4.21,8.96c0.11,0.31,0.24,0.61,0.4,0.9l19.26,36.65c1.64,3.14,5.37,4.56,8.68,3.31l15-5.55
	c2.38-0.89,5.02-0.83,7.35,0.19l38.3,16.45c7.33,3.15,15.59,3.37,23.08,0.61l80.41-29.63c5.66-2.09,8.56-8.38,6.47-14.04
	c-0.12-0.33-0.26-0.65-0.41-0.96H223.91z"/>
<path class="st1" d="M151.13,1.8c-29.87,0-54.09,24.22-54.09,54.09s24.22,54.09,54.09,54.09s54.09-24.22,54.09-54.09
	c0,0,0-0.01,0-0.01C205.18,26.02,180.99,1.83,151.13,1.8z M155.76,82.72v6.81c-0.01,0.73-0.59,1.31-1.32,1.31h-6.62
	c-0.72,0-1.31-0.59-1.31-1.31V82.9c-6.74-0.42-12.19-5.65-12.89-12.37c-0.05-0.72,0.49-1.34,1.21-1.39c0.04,0,0.08,0,0.11,0h6.7
	c0.6-0.01,1.13,0.41,1.26,1c0.46,2.11,2.33,3.62,4.49,3.62h5.86c3.5,0.1,6.51-2.45,7-5.92c0.38-3.64-2.27-6.89-5.9-7.26
	c-0.22-0.02-0.45-0.03-0.68-0.04h-4.31c-8.28,0-15.68-6-16.49-14.27c-0.83-8.49,5.19-16.11,13.64-17.27v-6.76
	c0-0.72,0.59-1.31,1.31-1.31h6.62c0.73,0,1.31,0.58,1.32,1.31v6.63c6.74,0.43,12.19,5.65,12.89,12.37c0.04,0.72-0.51,1.34-1.23,1.39
	c-0.03,0-0.06,0-0.09,0h-6.71c-0.6,0.01-1.13-0.41-1.25-1c-0.46-2.12-2.33-3.63-4.5-3.63H149c-3.52-0.08-6.54,2.51-7,6
	c-0.38,3.64,2.27,6.9,5.92,7.28c0.22,0.02,0.44,0.03,0.66,0.03h5c8.76,0.01,15.87,7.12,15.86,15.88c0,0.52-0.03,1.05-0.08,1.57
	C168.71,76,162.83,81.54,155.76,82.72L155.76,82.72z"/>
</svg>
