<svg id="Layer_1" data-name="Layer 1" xmlns="http://www.w3.org/2000/svg" viewBox="0 0 200 200"><defs><style>.cls-1{fill:#009dd6;}.cls-2{fill:#ec111a;}</style></defs><title>Scotia-Icons-NO_NAME</title><path class="cls-1" d="M63.26,150.35A2.38,2.38,0,0,1,60.88,148V131.77H30.42a2.37,2.37,0,0,0-2.37,2.37v63.49A2.37,2.37,0,0,0,30.42,200H77.09a2.37,2.37,0,0,0,2.37-2.37V150.35Zm-22-4.75H51.1a2.38,2.38,0,0,1,0,4.75H41.22a2.38,2.38,0,0,1,0-4.75Zm25.07,42.64H41.22a2.38,2.38,0,0,1,0-4.75H66.29a2.38,2.38,0,0,1,0,4.75Zm0-12.62H41.22a2.38,2.38,0,0,1,0-4.75H66.29a2.38,2.38,0,0,1,0,4.75Zm0-12.64H41.22a2.37,2.37,0,0,1,0-4.74H66.29a2.37,2.37,0,0,1,0,4.74Z"/><path class="cls-1" d="M78.77,145.11,66.12,132.46a2.54,2.54,0,0,0-.5-.36v13.51H79.13A2.54,2.54,0,0,0,78.77,145.11Z"/><path class="cls-1" d="M161.57,150.35A2.37,2.37,0,0,1,159.2,148V131.77H128.74a2.37,2.37,0,0,0-2.37,2.37v63.49a2.37,2.37,0,0,0,2.37,2.37h46.67a2.37,2.37,0,0,0,2.37-2.37V150.35Zm-22-4.75h9.87a2.38,2.38,0,0,1,0,4.75h-9.87a2.38,2.38,0,0,1,0-4.75Zm25.07,42.64H139.54a2.38,2.38,0,0,1,0-4.75h25.07a2.38,2.38,0,0,1,0,4.75Zm0-12.62H139.54a2.38,2.38,0,0,1,0-4.75h25.07a2.38,2.38,0,0,1,0,4.75Zm0-12.64H139.54a2.37,2.37,0,0,1,0-4.74h25.07a2.37,2.37,0,0,1,0,4.74Z"/><path class="cls-1" d="M177.08,145.11l-12.65-12.65a2.21,2.21,0,0,0-.49-.36v13.51h13.51A2.23,2.23,0,0,0,177.08,145.11Z"/><path class="cls-1" d="M168.38,48.79a41.28,41.28,0,0,0-74.56-31,36.41,36.41,0,0,0-10.56-1.57A36.89,36.89,0,0,0,46.77,47.62a31.4,31.4,0,0,0-5.15-.45,31.86,31.86,0,0,0-3.29,63.55H70.54l21.85-29.2a9.52,9.52,0,0,1,15.23,0l21.84,29.2h32.27a31.84,31.84,0,0,0,6.65-61.93Z"/><path class="cls-2" d="M125.34,122.86h-14v21.7a1.78,1.78,0,0,1-1.77,1.78H90.4a1.78,1.78,0,0,1-1.77-1.78v-21.7h-14A1.78,1.78,0,0,1,73.24,120L98.58,86.15a1.77,1.77,0,0,1,2.84,0L126.76,120A1.78,1.78,0,0,1,125.34,122.86Z"/></svg>