<svg id="Layer_1" data-name="Layer 1" xmlns="http://www.w3.org/2000/svg" viewBox="0 0 450 295"><defs><style>.cls-1{fill:#009dd6;}.cls-2{fill:#ec111a;}.cls-3{font-size:40px;fill:#333;font-family:Scotia-Bold, Scotia;font-weight:700;}.cls-4{letter-spacing:-0.01em;}.cls-5{letter-spacing:0em;}.cls-6{letter-spacing:-0.02em;}</style></defs><title>Scotia-Icons_Txt</title><path class="cls-1" d="M319.38,160.94H303.1V60.66A5.65,5.65,0,0,0,297.48,55H273.27a5.69,5.69,0,0,0-5.62,5.68V160.94H251.12v-63a44.42,44.42,0,0,1-34,15.66,12.54,12.54,0,0,1-1.5-.06v47.43h-16.6v-25.4a5.64,5.64,0,0,0-5.61-5.68H169.31a5.64,5.64,0,0,0-5.62,5.68v25.4H136.23V143.28h10.49a5.62,5.62,0,0,0,0-11.24H136.23V114.38h10.49a5.62,5.62,0,0,0,0-11.23H136.23V85.43h10.49a5.62,5.62,0,0,0,0-11.23H136.23V56.54h10.49a5.62,5.62,0,0,0,0-11.24H136.23V33.45a5.62,5.62,0,1,0-11.23,0v133.1a5.6,5.6,0,0,0,5.62,5.62H319.38a5.62,5.62,0,1,0,0-11.23Z"/><path class="cls-2" d="M177.24,115.8a7.16,7.16,0,0,0,5.07-2.1l18.53-18.52A31.49,31.49,0,1,0,190.68,85l-18.52,18.53a7.18,7.18,0,0,0,5.08,12.25Zm39.92-64A16.86,16.86,0,1,1,200.31,68.7,16.89,16.89,0,0,1,217.16,51.84Z"/><text class="cls-3" transform="translate(147.06 234.71)">His<tspan class="cls-4" x="57.8" y="0">t</tspan><tspan class="cls-5" x="73.2" y="0">orial</tspan><tspan x="-8.02" y="48">c</tspan><tspan class="cls-6" x="11.58" y="48">r</tspan><tspan x="27.02" y="48">editicio</tspan></text></svg>