<svg id="Layer_1" data-name="Layer 1" xmlns="http://www.w3.org/2000/svg" viewBox="0 0 200 200"><defs><style>.cls-1{fill:#14a0de;}.cls-2{fill:#ec111a;}</style></defs><title>Scotia-Icons-NO_NAME</title><path class="cls-1" d="M190.05,59.25h-8.74v80.3a11.57,11.57,0,0,1-11.57,11.58H31.56v9.66a11.57,11.57,0,0,0,11.57,11.57H190.05a11.57,11.57,0,0,0,11.57-11.57v-90A11.57,11.57,0,0,0,190.05,59.25Z"/><path class="cls-2" d="M156.87,27.64H10A11.57,11.57,0,0,0-1.62,39.21v90A11.57,11.57,0,0,0,10,140.75H156.87a11.57,11.57,0,0,0,11.57-11.57v-90A11.57,11.57,0,0,0,156.87,27.64ZM48.64,48.28A18.7,18.7,0,1,1,29.94,67,18.7,18.7,0,0,1,48.64,48.28Zm0,72.71c-29.86,0-29.86-2.68-29.86-2.68,0-10.39,5.31-28.76,13.35-34.11a23.83,23.83,0,0,0,33,0c8,5.35,13.36,23.72,13.36,34.11C78.5,118.31,78.5,121,48.64,121Zm94.09-4.22H93.79a5.48,5.48,0,0,1,0-11h48.94a5.48,5.48,0,0,1,0,11Zm0-27.1H93.79a5.48,5.48,0,0,1,0-11h48.94a5.48,5.48,0,0,1,0,11Zm0-27.09H93.79a5.48,5.48,0,0,1,0-10.95h48.94a5.48,5.48,0,0,1,0,10.95Z"/></svg>