<?xml version="1.0" encoding="utf-8"?>
<!-- Generator: Adobe Illustrator 24.0.1, SVG Export Plug-In . SVG Version: 6.00 Build 0)  -->
<svg version="1.1" id="Layer_1" xmlns="http://www.w3.org/2000/svg" xmlns:xlink="http://www.w3.org/1999/xlink" x="0px" y="0px"
	 viewBox="0 0 250 200" style="enable-background:new 0 0 250 200;" xml:space="preserve">
<style type="text/css">
	.st0{fill:#EC111A;}
	.st1{fill:#009DD6;}
</style>
<title>Scotia-Icons_Txt</title>
<path class="st0" d="M94.09,125.29c0.01,3.72,3.02,6.73,6.74,6.74h41.33c0.07-0.67,0.2-1.35,0.34-2.09l2.76-11.39h-44.43
	C97.11,118.56,94.1,121.57,94.09,125.29z"/>
<path class="st1" d="M183.21,135.33v16.45H74.34V12.43h108.87V66.5l10-11.79c1.01-1.21,2.19-2.28,3.5-3.17V4.21
	c-0.03-2.89-2.39-5.22-5.28-5.21H66.12c-2.91,0-5.26,2.35-5.26,5.26v26.67H34.14c-2.91,0-5.27,2.36-5.27,5.27v0V192
	c0.01,2.91,2.36,5.26,5.27,5.26h125.31c2.91,0,5.26-2.35,5.26-5.26l0,0v-26.73h26.72c2.91,0,5.26-2.35,5.26-5.26c0,0,0-0.01,0-0.01
	v-39.7l-9.36,11.06C186.1,132.82,184.72,134.15,183.21,135.33z M151.21,183.77H42.36V44.42h18.5V160c-0.01,2.91,2.34,5.26,5.25,5.27
	c0,0,0.01,0,0.01,0h85.11L151.21,183.77z"/>
<path class="st0" d="M153,132.51c-0.44,1.76,0.64,3.55,2.4,3.98c0.7,0.17,1.44,0.11,2.1-0.17l13.12-5.64
	c2.5-1.13,4.78-2.7,6.72-4.63l-17.51-14.81c-1.58,2.24-2.75,4.75-3.45,7.4L153,132.51z"/>
<path class="st0" d="M218.49,66.37l-6.57-5.55c-3.14-2.65-7.83-2.26-10.48,0.88l-34.85,41.13L184.51,118l34.86-41.13
	C222.03,73.73,221.63,69.03,218.49,66.37C218.49,66.37,218.49,66.37,218.49,66.37z"/>
<path class="st0" d="M128.77,30.53c-19.3,0.03-34.93,15.7-34.9,35c0.03,19.3,15.7,34.93,35,34.9c19.26-0.03,34.87-15.64,34.9-34.9
	C163.77,46.2,148.1,30.53,128.77,30.53L128.77,30.53z M145.15,61.53l-17.27,17.29c-2.14,2.13-5.6,2.13-7.74,0l-8.58-8.58
	c-2.06-2.21-1.94-5.68,0.27-7.75c2.1-1.96,5.36-1.96,7.47,0l4.7,4.72l13.39-13.4c2.21-2.06,5.68-1.94,7.75,0.27
	c1.96,2.1,1.96,5.36,0,7.47L145.15,61.53z"/>
</svg>
