<svg id="Layer_1" data-name="Layer 1" xmlns="http://www.w3.org/2000/svg" viewBox="0 0 450 295"><defs><style>.cls-1{font-size:40px;fill:#333;font-family:Scotia-Bold, Scotia;font-weight:700;}.cls-2{letter-spacing:0.01em;}.cls-3{fill:#ec111a;}.cls-4{fill:#009dd6;}</style></defs><title>Scotia-Icons_Txt</title><text class="cls-1" transform="translate(147.34 234.71)"><tspan class="cls-2">F</tspan><tspan x="22.28" y="0">irmado</tspan></text><path class="cls-3" d="M194.09,125.29a6.76,6.76,0,0,0,6.74,6.74h41.33c.07-.67.2-1.35.34-2.09l2.76-11.39H200.83A6.76,6.76,0,0,0,194.09,125.29Z"/><path class="cls-4" d="M283.21,135.33v16.45H174.34V12.43H283.21V66.5l10-11.79a17,17,0,0,1,3.5-3.17V4.21A5.26,5.26,0,0,0,291.43-1H166.12a5.26,5.26,0,0,0-5.26,5.26V30.93H134.14a5.27,5.27,0,0,0-5.27,5.27V192a5.27,5.27,0,0,0,5.27,5.26H259.45a5.26,5.26,0,0,0,5.26-5.26V165.27h26.72a5.26,5.26,0,0,0,5.26-5.27V120.3l-9.36,11.06A28,28,0,0,1,283.21,135.33Zm-32,48.44H142.36V44.42h18.5V160a5.26,5.26,0,0,0,5.26,5.27h85.11Z"/><path class="cls-3" d="M253,132.51a3.29,3.29,0,0,0,4.5,3.81l13.12-5.64a22.86,22.86,0,0,0,6.72-4.63l-17.51-14.81a22.86,22.86,0,0,0-3.45,7.4Z"/><path class="cls-3" d="M318.49,66.37l-6.57-5.55a7.44,7.44,0,0,0-10.48.88l-34.85,41.13L284.51,118l34.86-41.13A7.45,7.45,0,0,0,318.49,66.37Z"/><path class="cls-3" d="M228.77,30.53a34.95,34.95,0,1,0,35,35A35,35,0,0,0,228.77,30.53Zm16.38,31L227.88,78.82a5.48,5.48,0,0,1-7.74,0l-8.58-8.58a5.48,5.48,0,0,1,7.74-7.75L224,67.21l13.39-13.4a5.48,5.48,0,0,1,7.75,7.74Z"/></svg>