<svg id="Layer_1" data-name="Layer 1" xmlns="http://www.w3.org/2000/svg" viewBox="0 0 450 295"><defs><style>.cls-1{fill:#009dd6;}.cls-2{fill:#ec111a;}.cls-3{font-size:40px;fill:#333;font-family:Scotia-Bold, Scotia;font-weight:700;letter-spacing:-0.02em;}.cls-4{letter-spacing:0em;}</style></defs><title>Scotia-Icons_Txt</title><path class="cls-1" d="M274.91,150.1l-3.79-4.67c-12.07-13.55-29-23.59-36.36-27.57l-2.93,4.63a11.29,11.29,0,0,1-12.49,4.87l-.19-.07a11.46,11.46,0,0,1-7.74-13.45,48.1,48.1,0,0,1,5-13l-4.51-.63a17.31,17.31,0,0,0-10.74,2l-3.12,1.69a15.53,15.53,0,0,1-13.42.74l-6.15-2.55-25,39,8.41,5.65,4.62-4.62a10.91,10.91,0,0,1,15.44,0,10.5,10.5,0,0,1,3,5.91,10.83,10.83,0,0,1,12.8,10.71,11,11,0,0,1-.17,1.89,10.76,10.76,0,0,1,5.66,2.79h0l.24.21a10.92,10.92,0,0,1,3,9.63,10.72,10.72,0,0,1,5.89,3l.21.24a10.93,10.93,0,0,1,.93,13.9l4.89,6a6.76,6.76,0,0,0,9.18-.14,6.56,6.56,0,0,0,.2-9.09L225.68,185a3.32,3.32,0,1,1,4.68-4.71l4,4a6.63,6.63,0,0,0,9.32,0s.09-.1.15-.16a6.51,6.51,0,0,0-.11-9.09l-4.43-4.44a3.28,3.28,0,0,1,0-4.68,3.37,3.37,0,0,1,4.7,0l6.41,6.42a6.59,6.59,0,0,0,4.66,1.88h0a6.55,6.55,0,0,0,4.78-11l-6.68-6.65a3.36,3.36,0,0,1,0-4.71,3.34,3.34,0,0,1,4.71,0L266,160a7.26,7.26,0,0,0,5.35,2.12,6.22,6.22,0,0,0,4.55-2,6.66,6.66,0,0,0,1.71-4.43,6.76,6.76,0,0,0-.47-2.43C276.46,152.2,275.69,151.13,274.91,150.1Z"/><path class="cls-1" d="M244.93,100.5l-9.4-3.17a10.16,10.16,0,0,0-11.61,3.93l-.41.64a41.51,41.51,0,0,0-5.64,13.41,4.93,4.93,0,0,0,3.32,5.66,4.5,4.5,0,0,0,5-2l4.57-7.25a3.3,3.3,0,0,1,2.81-1.55,3.23,3.23,0,0,1,1.46.34c1.35.66,32.89,16.3,47.87,39.38l14-8L271.45,102A49.71,49.71,0,0,1,244.93,100.5Z"/><path class="cls-1" d="M204.69,179.71a4.26,4.26,0,0,0-3,1.24l-6.92,6.92a4.29,4.29,0,0,0,0,6.06,4.47,4.47,0,0,0,6.06,0l6.92-6.92a4.27,4.27,0,0,0-3-7.3Z"/><path class="cls-1" d="M198.82,168.34a4.3,4.3,0,0,0-6,0L184,177.11a4.27,4.27,0,0,0-1.24,3,4.22,4.22,0,0,0,1.25,3,4.43,4.43,0,0,0,6,0l8.79-8.78A4.29,4.29,0,0,0,198.82,168.34Z"/><path class="cls-1" d="M191.18,158.75a4.29,4.29,0,0,0-7.31-3l-10.64,10.64a4.3,4.3,0,0,0,0,6.06,4.41,4.41,0,0,0,6.06,0l10.64-10.64A4.28,4.28,0,0,0,191.18,158.75Z"/><path class="cls-1" d="M177.31,146.82a4.31,4.31,0,0,0-6.06,0l-8.77,8.77a4.28,4.28,0,0,0,3,7.31h0a4.26,4.26,0,0,0,3-1.25l8.77-8.78A4.29,4.29,0,0,0,177.31,146.82Z"/><path class="cls-1" d="M173.68,90.26,161.6,82.55a3.74,3.74,0,0,0-2-.59,5.91,5.91,0,0,0-.81.07,3.83,3.83,0,0,0-2.35,1.66l-30.83,48.25a3.78,3.78,0,0,0,1.14,5.21l12.08,7.71a3.79,3.79,0,0,0,2.83.49,4,4,0,0,0,2.38-1.63l30.83-48.28A3.75,3.75,0,0,0,173.68,90.26ZM139,136.56a5.28,5.28,0,1,1,5.28-5.27A5.29,5.29,0,0,1,139,136.56Z"/><path class="cls-1" d="M324.42,131.94,293.59,83.69a3.64,3.64,0,0,0-2.35-1.63,3.44,3.44,0,0,0-.84-.1,3.74,3.74,0,0,0-2,.59L276.3,90.26a3.77,3.77,0,0,0-1.14,5.18L306,143.72a3.79,3.79,0,0,0,5.18,1.14l12.08-7.71A3.78,3.78,0,0,0,324.42,131.94ZM311,136.56a5.28,5.28,0,1,1,5.27-5.27A5.27,5.27,0,0,1,311,136.56Z"/><path class="cls-2" d="M267.42,44.21a42.31,42.31,0,1,0-42.31,42.31A42.31,42.31,0,0,0,267.42,44.21ZM219.78,61.53a6.74,6.74,0,0,1-4.76-2L204.49,49A6.72,6.72,0,0,1,214,39.52l5.78,5.78,16.44-16.45a6.72,6.72,0,0,1,9.51,9.51l-21.2,21.2A6.7,6.7,0,0,1,219.78,61.53Z"/><text class="cls-3" transform="translate(95.48 234.71)">F<tspan class="cls-4" x="21.28" y="0">ormalización</tspan></text></svg>