<?xml version="1.0" encoding="utf-8"?>
<!-- Generator: Adobe Illustrator 24.0.1, SVG Export Plug-In . SVG Version: 6.00 Build 0)  -->
<svg version="1.1" id="Layer_1" xmlns="http://www.w3.org/2000/svg" xmlns:xlink="http://www.w3.org/1999/xlink" x="0px" y="0px"
	 viewBox="0 0 250 200" style="enable-background:new 0 0 250 200;" xml:space="preserve">
<style type="text/css">
	.st0{fill:#EC111A;}
	.st1{fill:#009DD6;}
</style>
<title>Scotia-Icons_Txt</title>
<path class="st0" d="M63.47,90.62c8.47-0.01,15.34-6.88,15.35-15.35c-0.02-1.75-0.34-3.49-0.95-5.13l19.55-13.88
	c5.55,4.61,13.61,4.61,19.16,0l19.55,13.88c-0.61,1.64-0.93,3.38-0.95,5.13c0,8.48,6.87,15.35,15.35,15.35s15.35-6.87,15.35-15.35
	l0,0c-0.02-1.75-0.34-3.49-0.95-5.13l19.55-13.88c6.69,5.42,16.5,4.39,21.91-2.3c5.42-6.69,4.39-16.5-2.3-21.91
	s-16.5-4.39-21.91,2.3c-3.45,4.25-4.41,10-2.53,15.14l-19.54,13.88c-5.55-4.61-13.61-4.61-19.16,0L121.4,49.49
	c0.61-1.64,0.93-3.38,0.95-5.13c0-8.48-6.88-15.35-15.36-15.34c-8.47,0-15.34,6.87-15.34,15.34c0.02,1.75,0.34,3.49,0.95,5.13
	L73.05,63.37c-6.59-5.31-16.23-4.27-21.54,2.32c-5.31,6.59-4.27,16.23,2.32,21.54C56.56,89.43,59.96,90.63,63.47,90.62z"/>
<path class="st1" d="M220,161h-11.8V79.54c0-2.3-1.86-4.16-4.16-4.16h-20c-2.29,0-4.15,1.86-4.15,4.15c0,0,0,0.01,0,0.01V161h-15.21
	v-50.55c0-2.3-1.86-4.16-4.16-4.16l0,0h-20c-2.3,0-4.16,1.86-4.16,4.16v0V161h-15.21V79.54c0-2.29-1.86-4.15-4.15-4.16H97
	c-2.3,0-4.16,1.86-4.16,4.16V161H77.62v-50.55c0-2.3-1.86-4.16-4.16-4.16l0,0h-20c-2.3,0-4.16,1.86-4.16,4.16v0V161H35V43.28
	c0-2.76-2.24-5-5-5c-2.76,0-5,2.24-5,5V166c0,2.76,2.24,5,5,5h190c2.76,0,5-2.24,5-5S222.76,161,220,161z"/>
</svg>
