<?xml version="1.0" encoding="utf-8"?>
<!-- Generator: Adobe Illustrator 24.0.1, SVG Export Plug-In . SVG Version: 6.00 Build 0)  -->
<svg version="1.1" id="Layer_1" xmlns="http://www.w3.org/2000/svg" xmlns:xlink="http://www.w3.org/1999/xlink" x="0px" y="0px"
	 viewBox="0 0 250 200" style="enable-background:new 0 0 250 200;" xml:space="preserve">
<style type="text/css">
	.st0{fill:#EC111A;}
	.st1{fill:#009DD6;}
</style>
<title>Scotia-Icons_Txt</title>
<path class="st0" d="M108.53,62.64c0.01,3.22,2.62,5.83,5.84,5.84h21.44c3.24,0,5.86-2.62,5.86-5.86s-2.62-5.86-5.86-5.86l0,0
	h-21.44C111.13,56.77,108.52,59.4,108.53,62.64C108.53,62.64,108.53,62.64,108.53,62.64z"/>
<path class="st0" d="M135.81,82.66h-21.44c-3.24,0-5.86,2.62-5.86,5.86s2.62,5.86,5.86,5.86h21.44c3.24,0,5.86-2.62,5.86-5.86
	S139.05,82.66,135.81,82.66L135.81,82.66z"/>
<path class="st0" d="M135.81,108.55h-21.44c-3.24,0.13-5.76,2.87-5.62,6.11c0.13,3.05,2.57,5.5,5.62,5.62h21.44
	c3.24-0.13,5.76-2.87,5.62-6.11C141.31,111.12,138.86,108.68,135.81,108.55z"/>
<path class="st0" d="M135.81,134.45h-21.44c-3.24,0-5.86,2.62-5.86,5.86s2.62,5.86,5.86,5.86h21.44c3.24,0,5.86-2.62,5.86-5.86
	S139.05,134.45,135.81,134.45L135.81,134.45z"/>
<path class="st0" d="M67.78,94.38h26.66c3.03,0,5.48-2.45,5.48-5.48V62.24c0-3.03-2.45-5.48-5.48-5.48H67.78
	c-3.03,0-5.48,2.45-5.48,5.48V88.9C62.3,91.93,64.75,94.38,67.78,94.38z M70.6,73c1.42-1.41,3.71-1.41,5.13,0l2.71,2.71l8.05-8
	c1.42-1.41,3.71-1.41,5.13,0c1.41,1.41,1.41,3.71,0,5.12c0,0,0,0,0,0l0,0L81,83.44c-1.42,1.42-3.71,1.42-5.13,0l-5.28-5.28
	c-1.42-1.41-1.43-3.71-0.02-5.13C70.58,73.02,70.59,73.01,70.6,73z"/>
<path class="st0" d="M67.78,146.17h26.66c3.03,0,5.48-2.45,5.48-5.48V114c0.01-3.03-2.44-5.48-5.47-5.49c0,0-0.01,0-0.01,0H67.78
	c-3.03,0-5.48,2.45-5.48,5.48c0,0,0,0.01,0,0.01v26.65c-0.02,3.03,2.41,5.5,5.44,5.52C67.75,146.17,67.77,146.17,67.78,146.17z
	 M70.6,124.84c1.42-1.41,3.71-1.41,5.13,0l2.71,2.72l8.05-8c1.41-1.42,3.71-1.42,5.12,0c1.42,1.41,1.42,3.71,0.01,5.12l0,0l0,0
	L81,135.23c-1.42,1.42-3.71,1.42-5.13,0L70.6,130c-1.42-1.41-1.44-3.71-0.03-5.13C70.58,124.86,70.59,124.85,70.6,124.84z"/>
<path class="st1" d="M47.18,158.31V41.88c0.01-2.05,1.67-3.71,3.72-3.73h8.7V24.6H37.35c-2.05,0.02-3.71,1.68-3.72,3.73v143.53
	c0.02,2.02,1.67,3.63,3.69,3.61c0.01,0,0.02,0,0.03,0h87.32l0.23-2.75c0.46-3.72,1.43-7.35,2.88-10.8H50.9
	C48.88,161.95,47.21,160.33,47.18,158.31z"/>
<path class="st1" d="M156.78,41.88v54.51c4.08-2.75,8.7-4.59,13.55-5.39V28.33c0.04-2.02-1.55-3.69-3.57-3.73c-0.01,0-0.03,0-0.04,0
	h-22.36v13.55h8.81c2.02,0.02,3.63,1.67,3.61,3.69C156.78,41.85,156.78,41.87,156.78,41.88z"/>
<path class="st1" d="M73.54,41h56.87c1.42-0.01,2.57-1.15,2.59-2.57V23.49c0-1.44-1.17-2.61-2.61-2.61l0,0H115.9v-6.5
	c0-6.65-4.47-12.71-11-14.07c-7.57-1.59-14.99,3.25-16.58,10.82c-0.19,0.92-0.29,1.85-0.3,2.79v7H73.54c-1.44,0-2.61,1.17-2.61,2.61
	c0,0,0,0,0,0v14.9C70.95,39.86,72.11,41,73.54,41z M102,8.84c2.81,0,5.08,2.27,5.08,5.08S104.81,19,102,19s-5.08-2.27-5.08-5.08
	C96.93,11.12,99.2,8.85,102,8.84z"/>
<path class="st1" d="M214.91,174.12c-1.39-11.4-9.35-20.92-20.32-24.3c-1.07-0.3-2.19,0.28-2.55,1.33l-10.94,31.29L178.6,162h1.67
	c1.01,0,1.82-0.81,1.82-1.82c0,0,0-0.01,0-0.01v-5.62c0.01-1.01-0.8-1.82-1.81-1.83c0,0-0.01,0-0.01,0h-9.16
	c-1.01,0-1.83,0.82-1.83,1.83v5.62c0,1.01,0.82,1.83,1.83,1.83h1.67l-2.51,20.45l-10.93-31.29c-0.36-1.05-1.48-1.63-2.55-1.33
	c-10.97,3.38-18.93,12.9-20.32,24.3L135,190.89c-0.36,4.59,3.06,8.61,7.65,8.97c0.22,0.02,0.44,0.03,0.66,0.03L208,200
	c4.61,0.01,8.34-3.72,8.35-8.33c0-0.24-0.01-0.48-0.03-0.72L214.91,174.12z"/>
<circle class="st1" cx="175.75" cy="124.39" r="22.19"/>
</svg>
