<svg id="Layer_1" data-name="Layer 1" xmlns="http://www.w3.org/2000/svg" viewBox="0 0 450 295"><defs><style>.cls-1{font-size:40px;fill:#333;font-family:Scotia-Bold, Scotia;font-weight:700;}.cls-2{letter-spacing:-0.02em;}.cls-3{letter-spacing:-0.02em;}.cls-4{letter-spacing:0em;}.cls-5{letter-spacing:-0.01em;}.cls-6{fill:#ec111a;}.cls-7{fill:#009dd6;}</style></defs><title>Scotia-Icons_Txt</title><text class="cls-1" transform="translate(128.62 234.71)"><tspan class="cls-2">R</tspan><tspan x="25.04" y="0">ep</tspan><tspan class="cls-3" x="71.24" y="0">r</tspan><tspan class="cls-4" x="86.68" y="0">o</tspan><tspan class="cls-5" x="110.28" y="0">c</tspan><tspan x="129.48" y="0">eso</tspan></text><path class="cls-6" d="M164,94.09a7.11,7.11,0,0,0-6.23-3.7h-7.9V84.61A68.35,68.35,0,0,1,262.37,32.4a7.89,7.89,0,0,0,10.19-12.06A84.14,84.14,0,0,0,134.1,84.61v5.78h-7.89a7.11,7.11,0,0,0-6,11L136,126a7.1,7.1,0,0,0,12,0l15.79-24.61A7.14,7.14,0,0,0,164,94.09Z"/><path class="cls-7" d="M248.21,93.86l10.94-1.11a3.44,3.44,0,0,0,3.1-3.42V79.88a3.45,3.45,0,0,0-3.09-3.42l-11-1.11a1,1,0,0,1-.85-.69,30.54,30.54,0,0,0-1.5-3.59A1,1,0,0,1,246,70l7-8.54a3.43,3.43,0,0,0-.23-4.6L246,50.16a3.43,3.43,0,0,0-4.6-.23l-8.54,7a1,1,0,0,1-1.09.12,30,30,0,0,0-3.6-1.5,1,1,0,0,1-.68-.85L226.4,43.7A3.44,3.44,0,0,0,223,40.62h-9.45a3.44,3.44,0,0,0-3.42,3.08L209,54.65a1,1,0,0,1-.68.85,30,30,0,0,0-3.6,1.5,1,1,0,0,1-1.09-.12l-8.53-7a3.44,3.44,0,0,0-4.61.23l-6.68,6.68a3.45,3.45,0,0,0-.23,4.6l7,8.54a1,1,0,0,1,.12,1.09,30.6,30.6,0,0,0-1.51,3.59,1,1,0,0,1-.85.69l-10.94,1.11a3.44,3.44,0,0,0-3.09,3.42v9.45a3.43,3.43,0,0,0,3.09,3.42l10.94,1.11a1,1,0,0,1,.85.69,30.74,30.74,0,0,0,1.51,3.6,1,1,0,0,1-.12,1.08l-7,8.54a3.46,3.46,0,0,0,.23,4.61l6.68,6.67a3.45,3.45,0,0,0,4.61.24l8.53-7a1,1,0,0,1,1.09-.12,31.77,31.77,0,0,0,3.6,1.51,1,1,0,0,1,.68.85l1.12,10.94a3.44,3.44,0,0,0,3.42,3.09H223a3.44,3.44,0,0,0,3.42-3.09l1.11-10.94a1,1,0,0,1,.68-.85,31.77,31.77,0,0,0,3.6-1.51,1,1,0,0,1,1.09.12l8.54,7a3.44,3.44,0,0,0,4.6-.24l6.68-6.67a3.44,3.44,0,0,0,.23-4.61l-7-8.54a1,1,0,0,1-.11-1.08,30.69,30.69,0,0,0,1.5-3.6A1,1,0,0,1,248.21,93.86Zm-30,6a15.26,15.26,0,1,1,15.26-15.26A15.26,15.26,0,0,1,218.25,99.87Z"/><path class="cls-6" d="M288.52,43.27,272.74,67.88a7.11,7.11,0,0,0,6,11h7.89v5.78a68.36,68.36,0,0,1-112.48,52.21,7.89,7.89,0,0,0-10.19,12.05,83.88,83.88,0,0,0,105.33,2.51l37.08,41.21a14.08,14.08,0,1,0,19.88-19.89L285,135.62a83.62,83.62,0,0,0,17.37-51V78.83h7.89a7.11,7.11,0,0,0,6-11L300.49,43.27C297.87,39.2,291.15,39.2,288.52,43.27Z"/></svg>