<svg id="Layer_1" data-name="Layer 1" xmlns="http://www.w3.org/2000/svg" viewBox="0 0 200 200"><defs><style>.cls-1{fill:#ec111a;}.cls-2{fill:#009dd6;}</style></defs><title>Scotia-Icons-NO_NAME</title><path class="cls-1" d="M38.47,90.62A15.37,15.37,0,0,0,53.82,75.27a15.07,15.07,0,0,0-1-5.13L72.42,56.26a15,15,0,0,0,19.16,0l19.55,13.88a15.07,15.07,0,0,0-.95,5.13,15.35,15.35,0,1,0,30.7,0,15.07,15.07,0,0,0-.95-5.13l19.55-13.88a15.58,15.58,0,1,0-4.83-6.77L135.11,63.37a15,15,0,0,0-19.16,0L96.4,49.49a15.07,15.07,0,0,0,.95-5.13,15.35,15.35,0,0,0-30.7,0,15.07,15.07,0,0,0,.95,5.13L48.05,63.37a15.32,15.32,0,1,0-9.58,27.25Z"/><path class="cls-2" d="M195,161h-11.8V79.54a4.16,4.16,0,0,0-4.16-4.16h-20a4.15,4.15,0,0,0-4.15,4.16V161H139.68V110.45a4.16,4.16,0,0,0-4.16-4.16h-20a4.16,4.16,0,0,0-4.16,4.16V161H96.15V79.54A4.16,4.16,0,0,0,92,75.38H72a4.16,4.16,0,0,0-4.16,4.16V161H52.62V110.45a4.16,4.16,0,0,0-4.16-4.16h-20a4.16,4.16,0,0,0-4.16,4.16V161H10V43.28a5,5,0,0,0-10,0V166a5,5,0,0,0,5,5H195a5,5,0,0,0,0-10Z"/></svg>