<?xml version="1.0" encoding="UTF-8" standalone="no"?>
<svg
   xmlns:dc="http://purl.org/dc/elements/1.1/"
   xmlns:cc="http://creativecommons.org/ns#"
   xmlns:rdf="http://www.w3.org/1999/02/22-rdf-syntax-ns#"
   xmlns:svg="http://www.w3.org/2000/svg"
   xmlns="http://www.w3.org/2000/svg"
   id="svg8"
   version="1.1"
   viewBox="0 0 206.61224 29.385895"
   height="29.385895mm"
   width="206.61224mm">
  <defs
     id="defs2">
    <clipPath
       clipPathUnits="userSpaceOnUse"
       id="clipPath867">
      <path
         d="m 687.358,585.03 h 684.374 V 774.339 H 687.358 Z"
         id="path865" />
    </clipPath>
    <clipPath
       clipPathUnits="userSpaceOnUse"
       id="clipPath925">
      <path
         d="m 738.563,347.015 h 585.673 v 83.299 H 738.563 Z"
         id="path923" />
    </clipPath>
    <clipPath
       clipPathUnits="userSpaceOnUse"
       id="clipPath1037">
      <path
         d="m 1466.266,586.138 h 133.726 v 36.991 h -133.726 z"
         id="path1035" />
    </clipPath>
    <clipPath
       clipPathUnits="userSpaceOnUse"
       id="clipPath1095">
      <path
         d="M 1470.842,348.824 H 1598.1 v 36.049 h -127.258 z"
         id="path1093" />
    </clipPath>
    <clipPath
       clipPathUnits="userSpaceOnUse"
       id="clipPath925-6">
      <path
         d="m 738.563,347.015 h 585.673 v 83.299 H 738.563 Z"
         id="path923-8" />
    </clipPath>
  </defs>
  <metadata
     id="metadata5">
    <rdf:RDF>
      <cc:Work
         rdf:about="">
        <dc:format>image/svg+xml</dc:format>
        <dc:type
           rdf:resource="http://purl.org/dc/dcmitype/StillImage" />
        <dc:title></dc:title>
      </cc:Work>
    </rdf:RDF>
  </metadata>
  <g
     transform="translate(-2.5272165,-79.711814)"
     id="layer1">
    <g
       id="g823"
       transform="matrix(0.35277777,0,0,-0.35277777,-111.16159,247.23963)">
      <g
         id="g919"
         transform="translate(-416.29601,44.568408)">
        <g
           id="g921"
           clip-path="url(#clipPath925-6)">
          <g
             id="g927"
             transform="translate(880.8796,363.2124)">
            <path
               d="m 0,0 c -7.043,0 -12.773,5.728 -12.773,12.769 0,7.043 5.73,12.771 12.773,12.771 7.042,0 12.769,-5.728 12.769,-12.771 C 12.769,5.728 7.042,0 0,0 m 0,41.736 c -15.972,0 -28.968,-12.994 -28.968,-28.967 0,-15.971 12.996,-28.967 28.968,-28.967 15.972,0 28.965,12.996 28.965,28.967 0,15.973 -12.993,28.967 -28.965,28.967"
               style="fill:#eb1c24;fill-opacity:1;fill-rule:nonzero;stroke:none"
               id="path929" />
          </g>
          <g
             id="g931"
             transform="translate(946.7484,403.5701)">
            <path
               d="M 0,0 H -7.908 V 17.098 H -25.222 V 0 h -7.908 v -15.671 h 7.908 v -39.507 h 17.314 v 39.507 H 0 Z"
               style="fill:#eb1c24;fill-opacity:1;fill-rule:nonzero;stroke:none"
               id="path933" />
          </g>
          <path
             d="m 954.691,348.392 h 17.313 v 55.178 h -17.313 z"
             style="fill:#eb1c24;fill-opacity:1;fill-rule:nonzero;stroke:none"
             id="path935" />
          <g
             id="g937"
             transform="translate(963.3461,430.3132)">
            <path
               d="m 0,0 c -5.317,0 -9.646,-4.328 -9.646,-9.646 0,-5.317 4.329,-9.645 9.646,-9.645 5.319,0 9.648,4.328 9.648,9.645 C 9.648,-4.328 5.319,0 0,0"
               style="fill:#eb1c24;fill-opacity:1;fill-rule:nonzero;stroke:none"
               id="path939" />
          </g>
          <g
             id="g941"
             transform="translate(1211.6609,388.7064)">
            <path
               d="m 0,0 c 5.689,0 10.317,-4.628 10.317,-10.317 v -29.997 h 17.314 v 32.369 c 0,14.695 -8.479,24.189 -21.859,24.189 -5.501,0 -11.306,-2.41 -16.086,-10.124 v 8.746 H -27.63 v -55.18 h 17.316 v 29.997 C -10.314,-4.628 -5.686,0 0,0"
               style="fill:#eb1c24;fill-opacity:1;fill-rule:nonzero;stroke:none"
               id="path943" />
          </g>
          <g
             id="g945"
             transform="translate(1302.3979,348.3922)">
            <path
               d="M 0,0 -21.276,27.569 -1.493,55.181 H -21.73 L -37.627,32.857 V 80.543 H -54.943 V 0 h 17.316 V 22.743 L -20.173,0 Z"
               style="fill:#eb1c24;fill-opacity:1;fill-rule:nonzero;stroke:none"
               id="path947" />
          </g>
          <g
             id="g949"
             transform="translate(792.3025,363.2426)">
            <path
               d="m 0,0 c 1.245,3.003 1.777,6.045 1.777,10.167 0,5.567 -1.745,10.546 -4.917,14.015 -3.697,4.05 -10.015,7.412 -18.781,9.997 -1.922,0.564 -3.531,1.169 -4.922,1.848 -1.548,0.753 -2.688,1.669 -3.668,2.73 -1.123,1.213 -1.577,2.652 -1.577,4.471 0,2.563 1.373,4.3 3.604,5.704 2.8,1.763 8.183,1.937 13.688,-0.104 1.916,-0.71 3.632,-1.495 5.585,-2.642 l 7.36,14.643 c -2.733,1.633 -6.624,3.761 -10.553,4.759 -3.984,1.012 -7.72,1.483 -11.758,1.483 -4.05,0 -7.747,-0.611 -10.989,-1.816 -2.883,-1.067 -5.869,-3.013 -8.409,-5.475 -2.303,-2.235 -4.391,-5.42 -5.592,-8.373 -1.231,-3.02 -1.854,-6.451 -1.854,-10.201 0,-3.914 1.853,-10.249 6.523,-14.626 5.043,-4.728 10.761,-6.406 13.063,-7.295 2.279,-0.881 4.833,-1.639 6.451,-2.283 1.71,-0.685 3.638,-1.587 4.74,-2.414 1.187,-0.888 1.987,-1.692 2.526,-2.809 0.523,-1.098 0.657,-2.09 0.538,-3.518 -0.15,-1.819 -0.979,-3.364 -2.462,-4.759 -1.485,-1.396 -4.163,-2.194 -7.96,-2.194 -3.186,0 -6.425,0.893 -9.656,2.323 -2.843,1.258 -4.808,2.366 -7.843,4.158 l -8.653,-15.077 c 6.039,-5.363 15.829,-8.94 24.549,-8.94 4.455,0 9.086,0.74 13.044,2.083 3.734,1.267 7.431,3.333 9.886,5.526 C -3.626,-6.264 -1.228,-2.961 0,0"
               style="fill:#eb1c24;fill-opacity:1;fill-rule:nonzero;stroke:none"
               id="path951" />
          </g>
          <g
             id="g953"
             transform="translate(1314.593,350.3354)">
            <path
               d="m 0,0 c -4.255,0 -7.702,3.447 -7.702,7.702 0,4.253 3.447,7.701 7.702,7.701 4.253,0 7.701,-3.448 7.701,-7.701 C 7.701,3.447 4.253,0 0,0 m 0,17.346 c -5.326,0 -9.645,-4.318 -9.645,-9.644 0,-5.328 4.319,-9.645 9.645,-9.645 5.326,0 9.644,4.317 9.644,9.645 0,5.326 -4.318,9.644 -9.644,9.644"
               style="fill:#eb1c24;fill-opacity:1;fill-rule:nonzero;stroke:none"
               id="path955" />
          </g>
          <g
             id="g957"
             transform="translate(1313.0292,358.1924)">
            <path
               d="m 0,0 h 2.213 c 0.81,0 1.479,0.716 1.479,1.619 0,0.904 -0.669,1.606 -1.479,1.606 H 0 Z M 1.544,-1.765 H 0 V -5.421 H -1.9 V 5.11 h 4.037 c 1.94,0 3.504,-1.565 3.504,-3.491 0,-1.323 -0.827,-2.512 -2.031,-3.068 L 5.828,-5.421 H 3.55 Z"
               style="fill:#eb1c24;fill-opacity:1;fill-rule:nonzero;stroke:none"
               id="path959" />
          </g>
          <g
             id="g961"
             transform="translate(839.7172,367.9818)">
            <path
               d="m 0,0 c -2.343,-2.905 -5.929,-4.769 -9.943,-4.769 -7.042,0 -12.772,5.728 -12.772,12.77 0,7.042 5.73,12.769 12.772,12.769 4.014,0 7.6,-1.863 9.943,-4.768 L 11.476,27.48 c -5.302,5.825 -12.94,9.486 -21.419,9.486 -15.973,0 -29.88,-11.366 -29.88,-28.965 0,-17.599 13.907,-28.968 29.88,-28.968 8.479,0 16.118,3.662 21.42,9.488 z"
               style="fill:#eb1c24;fill-opacity:1;fill-rule:nonzero;stroke:none"
               id="path963" />
          </g>
          <g
             id="g965"
             transform="translate(1009.4437,362.95)">
            <path
               d="m 0,0 c -7.187,0 -13.032,5.846 -13.032,13.032 0,7.188 5.845,13.035 13.032,13.035 7.186,0 13.034,-5.847 13.034,-13.035 C 13.034,5.846 7.186,0 0,0 M 30.291,-14.558 V 40.623 H 13.412 V 34.82 l -1.565,1.399 c -4.231,3.783 -8.963,5.782 -14.537,5.782 -14.895,0 -27.48,-13.265 -27.48,-28.969 0,-15.703 12.585,-28.967 27.48,-28.967 5.574,0 10.306,1.999 14.537,5.782 l 1.565,1.397 v -5.802 z"
               style="fill:#eb1c24;fill-opacity:1;fill-rule:nonzero;stroke:none"
               id="path967" />
          </g>
          <g
             id="g969"
             transform="translate(1145.4517,362.95)">
            <path
               d="m 0,0 c -7.187,0 -13.033,5.846 -13.033,13.032 0,7.188 5.846,13.035 13.033,13.035 7.186,0 13.034,-5.847 13.034,-13.035 C 13.034,5.846 7.186,0 0,0 M 30.29,-14.558 V 40.623 H 13.412 V 34.82 l -1.564,1.399 c -4.233,3.783 -8.964,5.782 -14.538,5.782 -14.895,0 -27.48,-13.265 -27.48,-28.969 0,-15.703 12.585,-28.967 27.48,-28.967 5.574,0 10.305,1.999 14.538,5.782 l 1.564,1.397 v -5.802 z"
               style="fill:#eb1c24;fill-opacity:1;fill-rule:nonzero;stroke:none"
               id="path971" />
          </g>
          <g
             id="g973"
             transform="translate(1065.946,375.9821)">
            <path
               d="m 0,0 c 0,7.187 5.848,13.035 13.035,13.035 7.187,0 13.032,-5.848 13.032,-13.035 0,-7.186 -5.845,-13.032 -13.032,-13.032 C 5.848,-13.032 0,-7.186 0,0 m -0.377,-27.59 v 5.802 l 1.564,-1.397 c 4.233,-3.783 8.964,-5.782 14.538,-5.782 14.895,0 27.48,13.264 27.48,28.967 0,15.703 -12.585,28.968 -27.48,28.968 -5.574,0 -10.305,-1.999 -14.538,-5.782 L -0.377,21.789 V 52.953 H -17.255 V -27.59 Z"
               style="fill:#eb1c24;fill-opacity:1;fill-rule:nonzero;stroke:none"
               id="path975" />
          </g>
        </g>
      </g>
    </g>
  </g>
</svg>
