<svg id="Layer_1" data-name="Layer 1" xmlns="http://www.w3.org/2000/svg" viewBox="0 0 202.91 257.33"><defs><style>.cls-1{fill:#004e7d;}.cls-1,.cls-2{fill-rule:evenodd;}.cls-2,.cls-3{fill:#565759;}</style></defs><title>logo-full-color</title><path class="cls-1" d="M43.14,196c3.07-7.14,4.3-11.26,4.3-11.87a3,3,0,0,0-.35-1.36h5.43c4.56,15.2,8.37,24.54,10.87,28.09H58.61l-4.43-12.18H44l-1.89,4.6c-1,2.32-1.79,4.3-1.79,6.22a4.66,4.66,0,0,0,.22,1.36H34.9c2.85-3.42,5.48-8.37,8.24-14.85m10.39,1.05-4.12-11.31-4.73,11.31Z" transform="translate(-2 -2)"/><path class="cls-1" d="M67.46,187.39l-.07,16v1.14a7.21,7.21,0,0,0,.84,4.14H64.06c1.46-1.28,2-8.2,2-20.91a3.19,3.19,0,0,0-.92-2.56h4.1c.55,0,.73,0,1,.66l6.63,17.69L84.16,186c.26-.66.48-.84,1.21-.84H89c-.7.92-.88,2.82-.88,5.71,0,10,.22,15.82,1.72,17.76H84.42c.81-1.24,1-2.93,1-5.31,0-.07,0-1.14-.07-3.15l-.22-12.82-9.15,21.79Z" transform="translate(-2 -2)"/><path class="cls-1" d="M109.69,190.21a5.65,5.65,0,0,0-5.64-3.84c-5.24,0-8.42,3.66-8.42,9.74,0,6.45,3.7,10.29,9,10.29a8.58,8.58,0,0,0,6.55-2.89c-.84,3.33-4,5.6-8.28,5.6-6.3,0-11-4.83-11-11.94,0-7.65,4.58-12.41,12.45-12.41,1.83,0,3.63.44,5.46.44Z" transform="translate(-2 -2)"/><path class="cls-1" d="M114.34,197.94v-1.5c0-6.59,0-10.29-.92-11.24h1.17c3,0,5.38-.33,7.29-.33,4.54,0,6.88,2.16,6.88,6.3,0,4.32-2.82,7.29-6.78,7.29a7.73,7.73,0,0,1-3.66-.8h.37c4,0,6.37-2.35,6.37-6.34,0-3.4-1.57-5-4.8-5a15,15,0,0,0-2.45.18,92.12,92.12,0,0,0-.33,10.91c0,6.63,0,10.29.91,11.24h-5c.88-.92.92-4.43.92-10.73" transform="translate(-2 -2)"/><path class="cls-1" d="M131.88,197.94v-1.5c0-6.59,0-10.29-.92-11.24h2.27c4.29,0,7.36-.11,9.27-.11.15,0,.55,0,1.28,0l.29,3.44c-.7-1.83-2.82-2-6.66-2h-2.05a48.25,48.25,0,0,0-.33,7.69v1.21c.84.07,1.79.07,2.86.07a36.17,36.17,0,0,0,6.26-.4c-1.72,2-4.39,2.12-8.17,2.12-.22,0-.55,0-1,0v2.38a48.83,48.83,0,0,0,.33,7.73h2.12c4.14,0,6.74-.44,8.28-2.53l-.62,3.66a20.07,20.07,0,0,1-3.66.29c-1.94,0-4.43-.07-7.51-.07h-3c.88-.92.92-4.43.92-10.73" transform="translate(-2 -2)"/><path class="cls-1" d="M160.29,182.47c4.47,0,6.75,2,6.75,5.61s-2.28,6.44-6.66,8.28l6.27,8.72a25.4,25.4,0,0,0,5.26,5.78h-4.16a2.18,2.18,0,0,1-2.19-1.14l-7.49-10.51a3.49,3.49,0,0,0-3.33-1.89h-.35V200c0,6.09,0,9.64,1.1,10.87h-6c1.05-1.1,1.1-5.3,1.1-12.84v-1.8c0-7.89,0-12.31-1.1-13.45h1.27c4.47,0,7.63-.31,9.51-.31m-4.07,13.32c4.29,0,6.62-2.37,6.62-6.44,0-3.46-1.71-5.13-5.3-5.13a21.4,21.4,0,0,0-2.76.13,54.32,54.32,0,0,0-.39,8.76v2.5a8.31,8.31,0,0,0,1.84.17" transform="translate(-2 -2)"/><path class="cls-2" d="M88.54,220.94c-32.65-9.9-63.39-3.47-65.29,10.39,0,0,18.68-22.83,65.29-10.39" transform="translate(-2 -2)"/><path class="cls-2" d="M119,221.2c33.27,8,63.54-.26,64.51-14.19,0,0-17.12,23.87-64.51,14.19" transform="translate(-2 -2)"/><path class="cls-1" d="M26.77,220.38a.46.46,0,1,0,.43.82c19.89-10.4,48.33-7,84.91,1.4,29.73,6.79,54.42,4.71,71.4-6a.46.46,0,0,0-.49-.78c-16.77,10.6-41.21,12.65-70.7,5.91-36.78-8.4-65.4-11.85-85.54-1.32" transform="translate(-2 -2)"/><path class="cls-1" d="M120.07,25.63a12.8,12.8,0,0,0-5.61-12.44C107.72,8.64,99.84,12,96.88,20.62S97,40,103.71,44.5a10.73,10.73,0,0,0,8.51,1.76c4-7,7-13.73,7.85-20.63" transform="translate(-2 -2)"/><path class="cls-1" d="M107.79,155.53c-16.76-38.15.75-63.25,15-85-10.89,14.24-22.25,28.32-24.56,44.81-1.76,13.7,3,27.16,9.53,40.19" transform="translate(-2 -2)"/><path class="cls-2" d="M115.2,2c20.19,10.5,26.11,30.82,18.43,46.1-11.44,22.71-34.38,42.1-37.69,67-2.54,20.7,9,40.88,19.47,59.79C38.41,77.66,151,50.6,115.2,2" transform="translate(-2 -2)"/><path class="cls-3" d="M8,244.37l-.87-2.07H4.06l-.87,2.07H2l3.41-8.12h.44l3.41,8.12Zm-2.07-5c-.06-.13-.12-.29-.18-.46l-.16-.51h0q-.06.25-.16.51t-.18.46l-.79,2H6.76Z" transform="translate(-2 -2)"/><path class="cls-3" d="M13.65,243.46a1.55,1.55,0,0,1-.39.54,1.92,1.92,0,0,1-.65.37,2.7,2.7,0,0,1-.9.14,3.35,3.35,0,0,1-.92-.12,2.21,2.21,0,0,1-.67-.3l-.26-1.25a3,3,0,0,0,.85.5,2.74,2.74,0,0,0,1,.2,1,1,0,0,0,.65-.19.59.59,0,0,0,.25-.48.65.65,0,0,0-.21-.5,1.7,1.7,0,0,0-.61-.33,3.81,3.81,0,0,1-1.31-.74,1.47,1.47,0,0,1-.45-1.12,1.56,1.56,0,0,1,.14-.65,1.52,1.52,0,0,1,.39-.52,1.76,1.76,0,0,1,.6-.34,2.42,2.42,0,0,1,.78-.12,3,3,0,0,1,.9.13,2.91,2.91,0,0,1,.58.23l-.21,1a2.06,2.06,0,0,0-.5-.25,2.33,2.33,0,0,0-.78-.11.89.89,0,0,0-.58.18.57.57,0,0,0-.21.46.53.53,0,0,0,.2.44,2.11,2.11,0,0,0,.63.31,3.92,3.92,0,0,1,1.32.75,1.53,1.53,0,0,1,.46,1.17,1.62,1.62,0,0,1-.13.65" transform="translate(-2 -2)"/><path class="cls-3" d="M20.4,242.74a2.8,2.8,0,0,1-.64.94,2.94,2.94,0,0,1-1,.61,3.13,3.13,0,0,1-1.19.22,3.18,3.18,0,0,1-1.19-.22,2.92,2.92,0,0,1-1-.61,2.78,2.78,0,0,1-.64-.94,3.28,3.28,0,0,1,0-2.42,2.84,2.84,0,0,1,.64-.94,2.89,2.89,0,0,1,1-.61,3.18,3.18,0,0,1,1.19-.22,3.13,3.13,0,0,1,1.19.22,2.91,2.91,0,0,1,1,.61,2.86,2.86,0,0,1,.64.94,3.28,3.28,0,0,1,0,2.42m-1.06-2a1.91,1.91,0,0,0-.41-.62,1.89,1.89,0,0,0-.59-.4,1.78,1.78,0,0,0-.71-.15,1.81,1.81,0,0,0-.72.15,1.86,1.86,0,0,0-1,1,2.12,2.12,0,0,0-.15.82,2.08,2.08,0,0,0,.15.81,1.86,1.86,0,0,0,1,1,1.8,1.8,0,0,0,.72.15,1.76,1.76,0,0,0,.71-.15,1.88,1.88,0,0,0,1-1,2.1,2.1,0,0,0,.15-.81,2.14,2.14,0,0,0-.15-.82" transform="translate(-2 -2)"/><path class="cls-3" d="M26.19,240a2.45,2.45,0,0,0-.75-.35,3.23,3.23,0,0,0-.78-.09,2.09,2.09,0,0,0-.75.14,1.93,1.93,0,0,0-.64.4,2,2,0,0,0-.45.63,2.13,2.13,0,0,0,0,1.66,1.87,1.87,0,0,0,.45.63,2,2,0,0,0,.65.39,2.14,2.14,0,0,0,.76.14,3.28,3.28,0,0,0,.78-.09,4.25,4.25,0,0,0,.85-.32l-.24,1.12a3.6,3.6,0,0,1-1.49.29,3.31,3.31,0,0,1-1.14-.2,3,3,0,0,1-1.67-1.52,2.87,2.87,0,0,1-.26-1.25,2.9,2.9,0,0,1,.26-1.26,2.94,2.94,0,0,1,1.67-1.53,3.32,3.32,0,0,1,1.14-.2,4.08,4.08,0,0,1,1,.11,3.43,3.43,0,0,1,.81.31Z" transform="translate(-2 -2)"/><path class="cls-3" d="M29,237.11a1.12,1.12,0,0,1-.19.23,1.56,1.56,0,0,1-.23.18.4.4,0,0,1-.21.08.41.41,0,0,1-.21-.08,1.37,1.37,0,0,1-.23-.18,1.25,1.25,0,0,1-.18-.23.32.32,0,0,1,0-.41,1.45,1.45,0,0,1,.18-.23,1.18,1.18,0,0,1,.23-.19.41.41,0,0,1,.21-.08.41.41,0,0,1,.21.08,1.33,1.33,0,0,1,.23.19,1.29,1.29,0,0,1,.19.23.32.32,0,0,1,0,.41m-1.2,1.57H28.9v5.69H27.76Z" transform="translate(-2 -2)"/><path class="cls-3" d="M34.55,244.51a1.08,1.08,0,0,1-.51-.26,1.19,1.19,0,0,1-.32-.46,1.65,1.65,0,0,1-.72.57,2.37,2.37,0,0,1-.88.16,2,2,0,0,1-.77-.14,1.81,1.81,0,0,1-.58-.38,1.62,1.62,0,0,1-.36-.56,1.8,1.8,0,0,1-.12-.66,1.67,1.67,0,0,1,.16-.74,1.69,1.69,0,0,1,.41-.55,2,2,0,0,1,.6-.36,2.72,2.72,0,0,1,.7-.17l1.33-.12v-.36a.93.93,0,0,0-.25-.66,1.13,1.13,0,0,0-.85-.27,3.08,3.08,0,0,0-.84.12,2.56,2.56,0,0,0-.73.32L30.6,239a2.87,2.87,0,0,1,.86-.37,4.07,4.07,0,0,1,1-.12,2.81,2.81,0,0,1,.88.13,1.9,1.9,0,0,1,.69.4,1.83,1.83,0,0,1,.45.65,2.24,2.24,0,0,1,.16.88v2.3a.93.93,0,0,0,.18.61.75.75,0,0,0,.46.27Zm-1.05-2.75-1.13.1a1.07,1.07,0,0,0-.75.33.9.9,0,0,0-.23.59.74.74,0,0,0,.23.53.76.76,0,0,0,.57.23,1.17,1.17,0,0,0,.46-.1,1.65,1.65,0,0,0,.43-.27,1.31,1.31,0,0,0,.32-.41,1.12,1.12,0,0,0,.12-.5Z" transform="translate(-2 -2)"/><path class="cls-3" d="M40.7,240a2.45,2.45,0,0,0-.75-.35,3.23,3.23,0,0,0-.78-.09,2.09,2.09,0,0,0-.75.14,1.93,1.93,0,0,0-.64.4,2,2,0,0,0-.45.63,2.13,2.13,0,0,0,0,1.66,1.87,1.87,0,0,0,.45.63,2,2,0,0,0,.65.39,2.14,2.14,0,0,0,.76.14,3.28,3.28,0,0,0,.78-.09,4.25,4.25,0,0,0,.85-.32l-.24,1.12a3.6,3.6,0,0,1-1.49.29,3.31,3.31,0,0,1-1.14-.2,3,3,0,0,1-1.67-1.52,2.87,2.87,0,0,1-.26-1.25,2.9,2.9,0,0,1,.26-1.26A2.94,2.94,0,0,1,38,238.75a3.32,3.32,0,0,1,1.14-.2,4.08,4.08,0,0,1,1,.11,3.43,3.43,0,0,1,.81.31Z" transform="translate(-2 -2)"/><path class="cls-3" d="M43.47,237.11a1.12,1.12,0,0,1-.19.23,1.61,1.61,0,0,1-.23.18.32.32,0,0,1-.41,0,1.42,1.42,0,0,1-.23-.18,1.28,1.28,0,0,1-.18-.23.32.32,0,0,1,0-.41,1.5,1.5,0,0,1,.18-.23,1.22,1.22,0,0,1,.23-.19.32.32,0,0,1,.41,0,1.36,1.36,0,0,1,.23.19,1.29,1.29,0,0,1,.19.23.32.32,0,0,1,0,.41m-1.21,1.57h1.14v5.69H42.27Z" transform="translate(-2 -2)"/><path class="cls-3" d="M50.61,242.74a2.76,2.76,0,0,1-.64.93,2.94,2.94,0,0,1-1,.61,3.15,3.15,0,0,1-1.18.22,3.21,3.21,0,0,1-1.19-.22,3,3,0,0,1-1-.61,2.77,2.77,0,0,1-.64-.93,3.26,3.26,0,0,1,0-2.42,2.83,2.83,0,0,1,.64-.94,2.93,2.93,0,0,1,1-.61,3.21,3.21,0,0,1,1.19-.22,3.15,3.15,0,0,1,1.18.22,2.92,2.92,0,0,1,1,.61,2.82,2.82,0,0,1,.64.94,3.26,3.26,0,0,1,0,2.42m-1.07-2a1.87,1.87,0,0,0-1-1,1.75,1.75,0,0,0-.71-.14,1.8,1.8,0,0,0-.72.14,1.87,1.87,0,0,0-.6.4,1.91,1.91,0,0,0-.41.62,2.13,2.13,0,0,0-.15.82,2.09,2.09,0,0,0,.15.8,1.89,1.89,0,0,0,.41.62,1.87,1.87,0,0,0,.6.4,1.81,1.81,0,0,0,.72.14,1.77,1.77,0,0,0,.71-.14,1.87,1.87,0,0,0,1-1,2.09,2.09,0,0,0,.15-.8,2.13,2.13,0,0,0-.15-.82m-.92-3.28a9.29,9.29,0,0,1-.92.3l-.53-.51a7.36,7.36,0,0,0,1.09-.43,4.05,4.05,0,0,0,1-.7l.2.88a4.13,4.13,0,0,1-.86.47" transform="translate(-2 -2)"/><path class="cls-3" d="M55.8,244.37v-3.64a1.42,1.42,0,0,0-.07-.44,1,1,0,0,0-.23-.38,1.17,1.17,0,0,0-.41-.27,1.83,1.83,0,0,0-1.2,0,1.22,1.22,0,0,0-.43.27,1.17,1.17,0,0,0-.26.38,1.15,1.15,0,0,0-.09.44v3.64H52v-5.68h1l.05.57a2.23,2.23,0,0,1,.71-.53,2.91,2.91,0,0,1,1.91,0,2,2,0,0,1,.68.41,1.82,1.82,0,0,1,.45.65,2.17,2.17,0,0,1,.16.86v3.77Z" transform="translate(-2 -2)"/><path class="cls-3" d="M69.22,244.37l-.33-3.61q0-.4-.07-.89t-.06-.93h0c-.12.29-.27.6-.45.95l-.46.91L66,244.43h-.45l-1.88-3.64c-.14-.27-.29-.57-.45-.9l-.45-.93h0c0,.31,0,.63-.06.95s0,.61-.06.85l-.32,3.61H61.21l.69-8h.75l2.13,4.12q.25.48.53,1t.48,1h0c.13-.31.28-.65.46-1l.52-1,2.11-4.12h.75l.72,8Z" transform="translate(-2 -2)"/><path class="cls-3" d="M76.62,241.17l-.64.64H72.56a1.58,1.58,0,0,0,.15.56,1.9,1.9,0,0,0,.38.55,2,2,0,0,0,.62.42,2.15,2.15,0,0,0,.87.16,3.07,3.07,0,0,0,1-.15,3.13,3.13,0,0,0,.84-.44l-.29,1.22a3.06,3.06,0,0,1-.7.26,4.16,4.16,0,0,1-1,.1,3.18,3.18,0,0,1-1.16-.21,3,3,0,0,1-1-.61,3,3,0,0,1-.67-.94,2.87,2.87,0,0,1-.25-1.21,3.06,3.06,0,0,1,.26-1.29,3,3,0,0,1,.66-.94,2.86,2.86,0,0,1,1.91-.77,2.72,2.72,0,0,1,1,.19,2.39,2.39,0,0,1,.77.5,2.11,2.11,0,0,1,.48.7,2,2,0,0,1,.16.78,2.36,2.36,0,0,1,0,.46m-1.19-.86a1.31,1.31,0,0,0-.25-.39,1.23,1.23,0,0,0-.91-.39,1.55,1.55,0,0,0-.54.1,1.8,1.8,0,0,0-.5.28,1.89,1.89,0,0,0-.39.43,1.39,1.39,0,0,0-.21.55h2.88a.68.68,0,0,0,0-.15,1.09,1.09,0,0,0-.09-.43" transform="translate(-2 -2)"/><path class="cls-3" d="M81,244.37l-.78-1.31c-.06-.09-.12-.2-.18-.31l-.18-.35h0c-.06.12-.12.23-.19.35l-.18.31-.78,1.31H77.48l1.76-2.87-1.68-2.81h1.27l.73,1.24.17.3.17.32h0l.17-.3.18-.31.73-1.24h1.23l-1.67,2.76,1.76,2.92Z" transform="translate(-2 -2)"/><path class="cls-3" d="M84.83,237.11a1.09,1.09,0,0,1-.19.23,1.51,1.51,0,0,1-.23.18.4.4,0,0,1-.21.08.41.41,0,0,1-.21-.08,1.37,1.37,0,0,1-.23-.18,1.25,1.25,0,0,1-.18-.23.32.32,0,0,1,0-.41,1.45,1.45,0,0,1,.18-.23,1.18,1.18,0,0,1,.23-.19.41.41,0,0,1,.21-.08.41.41,0,0,1,.21.08,1.29,1.29,0,0,1,.23.19,1.25,1.25,0,0,1,.19.23.32.32,0,0,1,0,.41m-1.2,1.57h1.14v5.69H83.63Z" transform="translate(-2 -2)"/><path class="cls-3" d="M90.85,240a2.45,2.45,0,0,0-.75-.35,3.23,3.23,0,0,0-.78-.09,2.09,2.09,0,0,0-.75.14,1.93,1.93,0,0,0-.64.4,2,2,0,0,0-.45.63,2.13,2.13,0,0,0,0,1.66,1.87,1.87,0,0,0,.45.63,2,2,0,0,0,.65.39,2.14,2.14,0,0,0,.76.14,3.28,3.28,0,0,0,.78-.09,4.25,4.25,0,0,0,.85-.32l-.24,1.12a3.6,3.6,0,0,1-1.49.29,3.31,3.31,0,0,1-1.14-.2,3,3,0,0,1-1.67-1.52,2.87,2.87,0,0,1-.26-1.25,2.9,2.9,0,0,1,.26-1.26,2.94,2.94,0,0,1,1.67-1.53,3.32,3.32,0,0,1,1.14-.2,4.08,4.08,0,0,1,1,.11,3.43,3.43,0,0,1,.81.31Z" transform="translate(-2 -2)"/><path class="cls-3" d="M96.17,244.51a1.08,1.08,0,0,1-.51-.26,1.19,1.19,0,0,1-.32-.46,1.65,1.65,0,0,1-.72.57,2.37,2.37,0,0,1-.88.16,2,2,0,0,1-.77-.14,1.81,1.81,0,0,1-.58-.38,1.62,1.62,0,0,1-.36-.56,1.8,1.8,0,0,1-.12-.66,1.67,1.67,0,0,1,.16-.74,1.69,1.69,0,0,1,.41-.55,2,2,0,0,1,.6-.36,2.72,2.72,0,0,1,.7-.17l1.33-.12v-.36a.93.93,0,0,0-.25-.66,1.13,1.13,0,0,0-.85-.27,3.08,3.08,0,0,0-.84.12,2.56,2.56,0,0,0-.73.32l-.23-.94a2.87,2.87,0,0,1,.86-.37,4.07,4.07,0,0,1,1-.12,2.81,2.81,0,0,1,.88.13,1.9,1.9,0,0,1,.69.4,1.83,1.83,0,0,1,.45.65,2.24,2.24,0,0,1,.16.88v2.3a.93.93,0,0,0,.18.61.75.75,0,0,0,.46.27Zm-1.05-2.75-1.13.1a1.07,1.07,0,0,0-.75.33.9.9,0,0,0-.23.59.74.74,0,0,0,.23.53.76.76,0,0,0,.57.23,1.17,1.17,0,0,0,.46-.1,1.65,1.65,0,0,0,.43-.27,1.31,1.31,0,0,0,.32-.41,1.12,1.12,0,0,0,.12-.5Z" transform="translate(-2 -2)"/><path class="cls-3" d="M101.72,244.37v-3.64a1.42,1.42,0,0,0-.07-.44,1,1,0,0,0-.23-.38,1.17,1.17,0,0,0-.41-.27,1.83,1.83,0,0,0-1.2,0,1.22,1.22,0,0,0-.43.27,1.17,1.17,0,0,0-.26.38,1.15,1.15,0,0,0-.09.44v3.64H97.89v-5.68h1l.05.57a2.23,2.23,0,0,1,.71-.53,2.91,2.91,0,0,1,1.91,0,2,2,0,0,1,.68.41,1.81,1.81,0,0,1,.45.65,2.17,2.17,0,0,1,.16.86v3.77Z" transform="translate(-2 -2)"/><path class="cls-3" d="M108.24,244.51a1.08,1.08,0,0,1-.51-.26,1.19,1.19,0,0,1-.32-.46,1.65,1.65,0,0,1-.72.57,2.37,2.37,0,0,1-.88.16,2,2,0,0,1-.77-.14,1.81,1.81,0,0,1-.58-.38,1.62,1.62,0,0,1-.36-.56,1.8,1.8,0,0,1-.12-.66,1.67,1.67,0,0,1,.16-.74,1.69,1.69,0,0,1,.41-.55,2,2,0,0,1,.6-.36,2.72,2.72,0,0,1,.7-.17l1.33-.12v-.36a.93.93,0,0,0-.25-.66,1.13,1.13,0,0,0-.85-.27,3.08,3.08,0,0,0-.84.12,2.56,2.56,0,0,0-.73.32l-.23-.94a2.87,2.87,0,0,1,.86-.37,4.07,4.07,0,0,1,1-.12,2.81,2.81,0,0,1,.88.13,1.9,1.9,0,0,1,.69.4,1.83,1.83,0,0,1,.45.65,2.24,2.24,0,0,1,.16.88v2.3a.93.93,0,0,0,.18.61.75.75,0,0,0,.46.27Zm-1.05-2.75-1.13.1a1.07,1.07,0,0,0-.75.33.9.9,0,0,0-.23.59.74.74,0,0,0,.23.53.76.76,0,0,0,.57.23,1.17,1.17,0,0,0,.46-.1,1.65,1.65,0,0,0,.43-.27,1.31,1.31,0,0,0,.32-.41,1.12,1.12,0,0,0,.12-.5Z" transform="translate(-2 -2)"/><path class="cls-3" d="M117.18,244.38l0-.45a1.65,1.65,0,0,1-.72.43,3.31,3.31,0,0,1-1,.15,2.67,2.67,0,0,1-.95-.19,2.84,2.84,0,0,1-.9-.56,2.89,2.89,0,0,1-.67-.93,3,3,0,0,1-.26-1.3,3.07,3.07,0,0,1,.23-1.2,2.82,2.82,0,0,1,1.58-1.56,3.15,3.15,0,0,1,1.19-.22,2.77,2.77,0,0,1,.84.12,2.54,2.54,0,0,1,.58.26v-3.49h1.14v8.95Zm-.16-4.31a2,2,0,0,0-.6-.37,2.08,2.08,0,0,0-.83-.16,1.82,1.82,0,0,0-.72.15,1.8,1.8,0,0,0-.59.4,1.85,1.85,0,0,0-.4.63,2.21,2.21,0,0,0-.14.82,2.17,2.17,0,0,0,.14.81,1.84,1.84,0,0,0,.4.63,1.82,1.82,0,0,0,1.31.55,2,2,0,0,0,.83-.16,1.73,1.73,0,0,0,.59-.42Z" transform="translate(-2 -2)"/><path class="cls-3" d="M124.6,241.17l-.64.64h-3.43a1.58,1.58,0,0,0,.15.56,1.9,1.9,0,0,0,.38.55,2,2,0,0,0,.62.42,2.15,2.15,0,0,0,.87.16,3.07,3.07,0,0,0,1-.15,3.13,3.13,0,0,0,.84-.44l-.29,1.22a3.06,3.06,0,0,1-.7.26,4.16,4.16,0,0,1-1,.1,3.18,3.18,0,0,1-1.16-.21,3,3,0,0,1-1-.61,3,3,0,0,1-.67-.94,2.87,2.87,0,0,1-.25-1.21,3.06,3.06,0,0,1,.26-1.29,3,3,0,0,1,.66-.94,2.86,2.86,0,0,1,1.91-.77,2.72,2.72,0,0,1,1,.19,2.39,2.39,0,0,1,.77.5,2.11,2.11,0,0,1,.48.7,2,2,0,0,1,.16.78,2.36,2.36,0,0,1,0,.46m-1.19-.86a1.31,1.31,0,0,0-.25-.39,1.23,1.23,0,0,0-.91-.39,1.55,1.55,0,0,0-.54.1,1.8,1.8,0,0,0-.5.28,1.89,1.89,0,0,0-.39.43,1.39,1.39,0,0,0-.21.55h2.88a.68.68,0,0,0,0-.15,1.09,1.09,0,0,0-.09-.43" transform="translate(-2 -2)"/><path class="cls-3" d="M134.93,237.78l-.36-.18a3.82,3.82,0,0,0-.48-.17c-.18,0-.36-.09-.56-.13a3.7,3.7,0,0,0-.61,0,3.62,3.62,0,0,0-1.17.19,3.2,3.2,0,0,0-1,.58,2.88,2.88,0,0,0-.74,1,3.49,3.49,0,0,0,0,2.74,2.79,2.79,0,0,0,.73,1,3.17,3.17,0,0,0,1,.58,3.66,3.66,0,0,0,1.18.2,5.28,5.28,0,0,0,1.28-.14,3.4,3.4,0,0,0,.93-.36l-.25,1.17a3.09,3.09,0,0,1-.85.29,6.61,6.61,0,0,1-1.25.09,4.73,4.73,0,0,1-1.53-.26,4.32,4.32,0,0,1-1.39-.79,3.93,3.93,0,0,1-1.4-3.11,4,4,0,0,1,.4-1.82,4.08,4.08,0,0,1,1-1.3,4.33,4.33,0,0,1,1.39-.78,4.64,4.64,0,0,1,1.52-.26,5.53,5.53,0,0,1,1.41.16,3.92,3.92,0,0,1,.95.37Z" transform="translate(-2 -2)"/><path class="cls-3" d="M137.64,237.11a1.1,1.1,0,0,1-.19.23,1.55,1.55,0,0,1-.23.18.32.32,0,0,1-.41,0,1.41,1.41,0,0,1-.23-.18,1.28,1.28,0,0,1-.18-.23.32.32,0,0,1,0-.41,1.5,1.5,0,0,1,.18-.23,1.22,1.22,0,0,1,.23-.19.32.32,0,0,1,.41,0,1.32,1.32,0,0,1,.23.19,1.26,1.26,0,0,1,.19.23.32.32,0,0,1,0,.41m-1.21,1.57h1.14v5.69h-1.14Z" transform="translate(-2 -2)"/><path class="cls-3" d="M142.51,239.57a2.59,2.59,0,0,0-.7.1,1.68,1.68,0,0,0-.65.34,1.86,1.86,0,0,0-.48.65,2.4,2.4,0,0,0-.19,1v2.69h-1.14v-5.69h1.08l0,.89a1.36,1.36,0,0,1,.76-.75,3,3,0,0,1,1.17-.22l.21,1Z" transform="translate(-2 -2)"/><path class="cls-3" d="M147.47,244.36l-.05-.56a2.11,2.11,0,0,1-.71.54,2.62,2.62,0,0,1-1,.17,2.5,2.5,0,0,1-.86-.14,2,2,0,0,1-.68-.41,1.85,1.85,0,0,1-.45-.65,2.19,2.19,0,0,1-.16-.86v-3.77h1.14v3.64a1.41,1.41,0,0,0,.07.44,1,1,0,0,0,.23.38,1.19,1.19,0,0,0,.41.27,1.61,1.61,0,0,0,.61.1,1.63,1.63,0,0,0,.6-.1,1.25,1.25,0,0,0,.43-.27,1.15,1.15,0,0,0,.26-.38,1.13,1.13,0,0,0,.09-.44v-3.64h1.14v5.68Z" transform="translate(-2 -2)"/><path class="cls-3" d="M154.39,246.13a1.8,1.8,0,0,1-.52.6,2.57,2.57,0,0,1-.8.39,3.83,3.83,0,0,1-2.1,0,2.45,2.45,0,0,1-.82-.43,1.9,1.9,0,0,1-.52-.65,1.86,1.86,0,0,1-.18-.82,1.78,1.78,0,0,1,.1-.6,1.92,1.92,0,0,1,.26-.5,1.77,1.77,0,0,1,.38-.38,1.58,1.58,0,0,1,.44-.23l-.58-.58a.85.85,0,0,1,.2-.56,1.45,1.45,0,0,1,.44-.37,2.11,2.11,0,0,1-.62-.68,1.72,1.72,0,0,1-.22-.87,1.89,1.89,0,0,1,.16-.77,1.74,1.74,0,0,1,.44-.61,2.09,2.09,0,0,1,.67-.39,2.48,2.48,0,0,1,.87-.14,2.71,2.71,0,0,1,.39,0l.31.06.33.06.4,0a1.7,1.7,0,0,0,.47-.06,2.2,2.2,0,0,0,.37-.14l.21.94a.68.68,0,0,1-.24.1l-.32.05a1.28,1.28,0,0,1,.14.36,2.1,2.1,0,0,1,.06.5,1.9,1.9,0,0,1-.14.73,1.77,1.77,0,0,1-.42.61,2.06,2.06,0,0,1-.66.42,2.34,2.34,0,0,1-.89.16,1.83,1.83,0,0,0-.53.06.25.25,0,0,0-.19.25.24.24,0,0,0,0,.1.23.23,0,0,0,.13.1l1.56.54a2.9,2.9,0,0,1,1.17.71,1.73,1.73,0,0,1,.42,1.24,1.59,1.59,0,0,1-.18.75m-1.09-1.34a1.42,1.42,0,0,0-.66-.39l-1-.29a1.18,1.18,0,0,0-.85.31,1.05,1.05,0,0,0-.33.79,1,1,0,0,0,.09.41,1.06,1.06,0,0,0,.29.36,1.48,1.48,0,0,0,.48.26,2.51,2.51,0,0,0,1.34,0,1.47,1.47,0,0,0,.47-.23,1,1,0,0,0,.28-.31.7.7,0,0,0,.09-.35.85.85,0,0,0-.22-.58m-.53-5a1.07,1.07,0,0,0-.78-.29,1.09,1.09,0,0,0-.78.29.92.92,0,0,0,0,1.37,1.1,1.1,0,0,0,.78.29,1.13,1.13,0,0,0,.41-.08,1.15,1.15,0,0,0,.35-.21,1,1,0,0,0,.24-.32.89.89,0,0,0,.09-.38.93.93,0,0,0-.3-.68" transform="translate(-2 -2)"/><path class="cls-3" d="M157.12,237.43a9.46,9.46,0,0,1-.92.3l-.53-.52a7.36,7.36,0,0,0,1.09-.43,4,4,0,0,0,1-.7l.2.88a4.17,4.17,0,0,1-.86.47m-1.24,1.25H157v5.69h-1.16Z" transform="translate(-2 -2)"/><path class="cls-3" d="M162.67,244.51a1.08,1.08,0,0,1-.51-.26,1.19,1.19,0,0,1-.32-.46,1.65,1.65,0,0,1-.72.57,2.37,2.37,0,0,1-.88.16,2,2,0,0,1-.77-.14,1.81,1.81,0,0,1-.58-.38,1.62,1.62,0,0,1-.36-.56,1.8,1.8,0,0,1-.12-.66,1.67,1.67,0,0,1,.16-.74,1.69,1.69,0,0,1,.41-.55,2,2,0,0,1,.6-.36,2.72,2.72,0,0,1,.7-.17l1.33-.12v-.36a.93.93,0,0,0-.25-.66,1.13,1.13,0,0,0-.85-.27,3.08,3.08,0,0,0-.84.12,2.56,2.56,0,0,0-.73.32l-.23-.94a2.87,2.87,0,0,1,.86-.37,4.07,4.07,0,0,1,1-.12,2.81,2.81,0,0,1,.88.13,1.9,1.9,0,0,1,.69.4,1.83,1.83,0,0,1,.45.65,2.24,2.24,0,0,1,.16.88v2.3a.93.93,0,0,0,.18.61.75.75,0,0,0,.46.27Zm-1.05-2.75-1.13.1a1.07,1.07,0,0,0-.75.33.9.9,0,0,0-.23.59.74.74,0,0,0,.23.53.76.76,0,0,0,.57.23,1.17,1.17,0,0,0,.46-.1,1.65,1.65,0,0,0,.43-.27,1.31,1.31,0,0,0,.32-.41,1.12,1.12,0,0,0,.12-.5Z" transform="translate(-2 -2)"/><path class="cls-3" d="M172,239.6a2.12,2.12,0,0,1-.57.7,2.39,2.39,0,0,1-.77.41,2.73,2.73,0,0,1-.85.14H168.6v3.51h-1.21v-8h2.41a2.73,2.73,0,0,1,.85.14,2.39,2.39,0,0,1,.77.41,2.26,2.26,0,0,1,.57,2.68m-1.12-1.53a1.08,1.08,0,0,0-.31-.38,1.36,1.36,0,0,0-.45-.23,1.83,1.83,0,0,0-.51-.07h-1v2.44h1a1.94,1.94,0,0,0,.51-.07,1.25,1.25,0,0,0,.45-.22,1.06,1.06,0,0,0,.31-.38,1.24,1.24,0,0,0,.11-.55,1.2,1.2,0,0,0-.11-.54" transform="translate(-2 -2)"/><path class="cls-3" d="M174.52,244.59a1.83,1.83,0,0,1-.33-.13,1.29,1.29,0,0,1-.37-.27,1.6,1.6,0,0,1-.3-.46,1.71,1.71,0,0,1-.13-.7v-7.6h1.14v7.44a.86.86,0,0,0,.25.65,1,1,0,0,0,.51.3Z" transform="translate(-2 -2)"/><path class="cls-3" d="M180.45,244.51a1.08,1.08,0,0,1-.51-.26,1.22,1.22,0,0,1-.32-.46,1.64,1.64,0,0,1-.72.56,2.35,2.35,0,0,1-.88.16,2,2,0,0,1-.77-.14,1.85,1.85,0,0,1-.58-.38,1.62,1.62,0,0,1-.36-.56,1.81,1.81,0,0,1-.12-.66,1.67,1.67,0,0,1,.16-.74,1.71,1.71,0,0,1,.41-.55,2,2,0,0,1,.6-.36,2.69,2.69,0,0,1,.7-.17l1.33-.13v-.36a.94.94,0,0,0-.25-.66,1.13,1.13,0,0,0-.85-.27,3,3,0,0,0-.84.12,2.52,2.52,0,0,0-.73.33l-.23-.94a2.89,2.89,0,0,1,.86-.37,4.07,4.07,0,0,1,1-.12,2.81,2.81,0,0,1,.88.13,1.89,1.89,0,0,1,.69.4,1.8,1.8,0,0,1,.45.65,2.22,2.22,0,0,1,.16.89v2.3a.92.92,0,0,0,.18.61.75.75,0,0,0,.46.27Zm-1.05-2.75-1.13.1a1.07,1.07,0,0,0-.75.33.9.9,0,0,0-.23.59.74.74,0,0,0,.23.53.75.75,0,0,0,.57.23,1.17,1.17,0,0,0,.46-.1,1.64,1.64,0,0,0,.43-.27,1.31,1.31,0,0,0,.31-.41,1.12,1.12,0,0,0,.12-.5Zm-.55-4.32a9.46,9.46,0,0,1-.92.3l-.53-.51a7.41,7.41,0,0,0,1.09-.43,4.07,4.07,0,0,0,1-.7l.2.88a4.09,4.09,0,0,1-.86.47" transform="translate(-2 -2)"/><path class="cls-3" d="M185.61,243.46a1.55,1.55,0,0,1-.39.54,1.92,1.92,0,0,1-.65.37,2.7,2.7,0,0,1-.9.14,3.35,3.35,0,0,1-.92-.12,2.21,2.21,0,0,1-.67-.3l-.26-1.25a3,3,0,0,0,.85.5,2.74,2.74,0,0,0,1,.2,1,1,0,0,0,.65-.19.59.59,0,0,0,.25-.48.65.65,0,0,0-.21-.5,1.7,1.7,0,0,0-.61-.33,3.81,3.81,0,0,1-1.31-.74,1.47,1.47,0,0,1-.45-1.12,1.56,1.56,0,0,1,.14-.65,1.52,1.52,0,0,1,.39-.52,1.76,1.76,0,0,1,.6-.34,2.42,2.42,0,0,1,.78-.12,3,3,0,0,1,.9.13,2.91,2.91,0,0,1,.58.23l-.21,1a2.06,2.06,0,0,0-.5-.25,2.33,2.33,0,0,0-.78-.11.89.89,0,0,0-.58.18.57.57,0,0,0-.21.46.53.53,0,0,0,.2.44,2.11,2.11,0,0,0,.63.31,3.92,3.92,0,0,1,1.32.75,1.53,1.53,0,0,1,.46,1.17,1.62,1.62,0,0,1-.13.65" transform="translate(-2 -2)"/><path class="cls-3" d="M190.36,239.6h-1.81v3.15a.62.62,0,0,0,.25.53,1,1,0,0,0,.6.18,2.18,2.18,0,0,0,.63-.08l-.22,1a2,2,0,0,1-.52,0,2.32,2.32,0,0,1-.73-.11A1.73,1.73,0,0,1,188,244a1.57,1.57,0,0,1-.4-.54,1.81,1.81,0,0,1-.15-.75V239.6H186.3v-.92h1.12v-1.15l1.14-.59v1.74h2Z" transform="translate(-2 -2)"/><path class="cls-3" d="M192.85,237.11a1.12,1.12,0,0,1-.19.23,1.61,1.61,0,0,1-.23.18.32.32,0,0,1-.41,0,1.41,1.41,0,0,1-.23-.18,1.28,1.28,0,0,1-.18-.23.32.32,0,0,1,0-.41,1.5,1.5,0,0,1,.18-.23,1.22,1.22,0,0,1,.23-.19.32.32,0,0,1,.41,0,1.36,1.36,0,0,1,.23.19,1.29,1.29,0,0,1,.19.23.32.32,0,0,1,0,.41m-1.2,1.57h1.14v5.69h-1.14Z" transform="translate(-2 -2)"/><path class="cls-3" d="M198.86,240a2.45,2.45,0,0,0-.75-.35,3.23,3.23,0,0,0-.78-.09,2.09,2.09,0,0,0-.75.14,1.93,1.93,0,0,0-.64.4,2,2,0,0,0-.45.63,2.13,2.13,0,0,0,0,1.66,1.87,1.87,0,0,0,.45.63,2,2,0,0,0,.65.39,2.14,2.14,0,0,0,.76.14,3.28,3.28,0,0,0,.78-.09,4.25,4.25,0,0,0,.85-.32l-.24,1.12a3.6,3.6,0,0,1-1.49.29,3.31,3.31,0,0,1-1.14-.2,3,3,0,0,1-1.67-1.52,2.87,2.87,0,0,1-.26-1.25,2.9,2.9,0,0,1,.26-1.26,2.94,2.94,0,0,1,1.67-1.53,3.32,3.32,0,0,1,1.14-.2,4.08,4.08,0,0,1,1,.11,3.43,3.43,0,0,1,.81.31Z" transform="translate(-2 -2)"/><path class="cls-3" d="M204.18,244.51a1.08,1.08,0,0,1-.51-.26,1.19,1.19,0,0,1-.32-.46,1.65,1.65,0,0,1-.72.57,2.37,2.37,0,0,1-.88.16,2,2,0,0,1-.77-.14,1.81,1.81,0,0,1-.58-.38,1.62,1.62,0,0,1-.36-.56,1.8,1.8,0,0,1-.12-.66,1.67,1.67,0,0,1,.16-.74,1.69,1.69,0,0,1,.41-.55,2,2,0,0,1,.6-.36,2.72,2.72,0,0,1,.7-.17l1.33-.12v-.36a.93.93,0,0,0-.25-.66,1.13,1.13,0,0,0-.85-.27,3.08,3.08,0,0,0-.84.12,2.56,2.56,0,0,0-.73.32l-.23-.94a2.87,2.87,0,0,1,.86-.37,4.07,4.07,0,0,1,1-.12,2.81,2.81,0,0,1,.88.13,1.9,1.9,0,0,1,.69.4,1.83,1.83,0,0,1,.45.65,2.24,2.24,0,0,1,.16.88v2.3a.93.93,0,0,0,.18.61.75.75,0,0,0,.46.27Zm-1.05-2.75-1.13.1a1.07,1.07,0,0,0-.75.33.9.9,0,0,0-.23.59.74.74,0,0,0,.23.53.76.76,0,0,0,.57.23,1.17,1.17,0,0,0,.46-.1,1.65,1.65,0,0,0,.43-.27,1.31,1.31,0,0,0,.32-.41,1.12,1.12,0,0,0,.12-.5Z" transform="translate(-2 -2)"/><polygon class="cls-3" points="25.26 254.37 25.26 246.36 29.59 246.36 29.59 247.4 26.49 247.4 26.49 249.82 29.09 249.82 29.09 250.87 26.49 250.87 26.49 253.33 30.03 253.33 30.03 254.37 25.26 254.37"/><path class="cls-3" d="M36.42,255.46A1.55,1.55,0,0,1,36,256a1.92,1.92,0,0,1-.65.37,2.7,2.7,0,0,1-.9.14,3.35,3.35,0,0,1-.92-.12,2.21,2.21,0,0,1-.67-.3l-.26-1.25a3,3,0,0,0,.85.5,2.74,2.74,0,0,0,1,.2,1,1,0,0,0,.65-.19.59.59,0,0,0,.25-.48.65.65,0,0,0-.21-.5,1.7,1.7,0,0,0-.61-.33,3.81,3.81,0,0,1-1.31-.74,1.47,1.47,0,0,1-.45-1.12,1.56,1.56,0,0,1,.14-.65,1.52,1.52,0,0,1,.39-.52,1.76,1.76,0,0,1,.6-.34,2.42,2.42,0,0,1,.78-.12,3,3,0,0,1,.9.13,2.91,2.91,0,0,1,.58.23l-.21,1a2.06,2.06,0,0,0-.5-.25,2.33,2.33,0,0,0-.78-.11.89.89,0,0,0-.58.18.57.57,0,0,0-.21.46.53.53,0,0,0,.2.44,2.11,2.11,0,0,0,.63.31,3.92,3.92,0,0,1,1.32.75,1.53,1.53,0,0,1,.46,1.17,1.62,1.62,0,0,1-.13.65" transform="translate(-2 -2)"/><path class="cls-3" d="M41.17,251.6H39.36v3.15a.62.62,0,0,0,.25.53,1,1,0,0,0,.6.18,2.18,2.18,0,0,0,.63-.08l-.23,1a2,2,0,0,1-.51,0,2.32,2.32,0,0,1-.73-.11,1.73,1.73,0,0,1-.59-.33,1.57,1.57,0,0,1-.4-.54,1.81,1.81,0,0,1-.14-.75V251.6H37.1v-.92h1.12v-1.15l1.14-.59v1.74h2Z" transform="translate(-2 -2)"/><path class="cls-3" d="M47.2,253.17l-.64.64H43.13a1.57,1.57,0,0,0,.15.56,1.89,1.89,0,0,0,.38.55,1.93,1.93,0,0,0,.62.42,2.15,2.15,0,0,0,.87.16,2.91,2.91,0,0,0,1.82-.58l-.29,1.22a3.1,3.1,0,0,1-.7.26,4.16,4.16,0,0,1-1,.1,3.18,3.18,0,0,1-1.15-.21,3,3,0,0,1-1.64-1.55,2.86,2.86,0,0,1-.25-1.21,3.05,3.05,0,0,1,.26-1.29,3,3,0,0,1,.66-.93,2.87,2.87,0,0,1,1.91-.77,2.72,2.72,0,0,1,1,.19,2.37,2.37,0,0,1,.77.49,2.1,2.1,0,0,1,.48.7,2,2,0,0,1,.16.78,2.33,2.33,0,0,1,0,.46M46,252.3a1.3,1.3,0,0,0-.25-.39,1.26,1.26,0,0,0-.39-.28,1.21,1.21,0,0,0-.51-.11,1.54,1.54,0,0,0-.53.1,1.81,1.81,0,0,0-.5.28,1.9,1.9,0,0,0-.39.43,1.38,1.38,0,0,0-.21.55h2.86a.78.78,0,0,0,0-.15,1.11,1.11,0,0,0-.09-.43m-.61-2.87a9.35,9.35,0,0,1-.92.3l-.53-.51a7.45,7.45,0,0,0,1.09-.43,4.07,4.07,0,0,0,1-.7l.2.88a4.1,4.1,0,0,1-.86.47" transform="translate(-2 -2)"/><path class="cls-3" d="M51.85,251.6H50v3.15a.62.62,0,0,0,.25.53,1,1,0,0,0,.6.18,2.18,2.18,0,0,0,.63-.08l-.23,1a2,2,0,0,1-.51,0,2.32,2.32,0,0,1-.73-.11,1.73,1.73,0,0,1-.59-.33,1.57,1.57,0,0,1-.4-.54,1.81,1.81,0,0,1-.14-.75V251.6H47.79v-.92H48.9v-1.15l1.14-.59v1.74h2Z" transform="translate(-2 -2)"/><path class="cls-3" d="M54.34,249.11a1.12,1.12,0,0,1-.19.23,1.56,1.56,0,0,1-.23.18.4.4,0,0,1-.21.08.41.41,0,0,1-.21-.08,1.37,1.37,0,0,1-.23-.18,1.25,1.25,0,0,1-.18-.23.32.32,0,0,1,0-.41,1.45,1.45,0,0,1,.18-.23,1.18,1.18,0,0,1,.23-.19.41.41,0,0,1,.21-.08.41.41,0,0,1,.21.08,1.33,1.33,0,0,1,.23.19,1.29,1.29,0,0,1,.19.23.32.32,0,0,1,0,.41m-1.2,1.57h1.14v5.69H53.13Z" transform="translate(-2 -2)"/><path class="cls-3" d="M60.35,252a2.45,2.45,0,0,0-.75-.35,3.23,3.23,0,0,0-.78-.09,2.09,2.09,0,0,0-.75.14,1.93,1.93,0,0,0-.64.4,2,2,0,0,0-.45.63,2.13,2.13,0,0,0,0,1.66,1.87,1.87,0,0,0,.45.63,2,2,0,0,0,.65.39,2.14,2.14,0,0,0,.76.14,3.28,3.28,0,0,0,.78-.09,4.25,4.25,0,0,0,.85-.32l-.24,1.12a3.6,3.6,0,0,1-1.49.29,3.31,3.31,0,0,1-1.14-.2,3,3,0,0,1-1.67-1.52,2.87,2.87,0,0,1-.26-1.25,2.9,2.9,0,0,1,.26-1.26,2.94,2.94,0,0,1,1.67-1.53,3.32,3.32,0,0,1,1.14-.2,4.08,4.08,0,0,1,1,.11,3.43,3.43,0,0,1,.81.31Z" transform="translate(-2 -2)"/><path class="cls-3" d="M65.67,256.51a1.08,1.08,0,0,1-.51-.26,1.19,1.19,0,0,1-.32-.46,1.65,1.65,0,0,1-.72.57,2.37,2.37,0,0,1-.88.16,2,2,0,0,1-.77-.14,1.81,1.81,0,0,1-.58-.38,1.62,1.62,0,0,1-.36-.56,1.8,1.8,0,0,1-.12-.66,1.67,1.67,0,0,1,.16-.74,1.69,1.69,0,0,1,.41-.55,2,2,0,0,1,.6-.36,2.72,2.72,0,0,1,.7-.17l1.33-.12v-.36a.93.93,0,0,0-.25-.66,1.13,1.13,0,0,0-.85-.27,3.08,3.08,0,0,0-.84.12,2.56,2.56,0,0,0-.73.32l-.23-.94a2.87,2.87,0,0,1,.86-.37,4.07,4.07,0,0,1,1-.12,2.81,2.81,0,0,1,.88.13,1.9,1.9,0,0,1,.69.4,1.83,1.83,0,0,1,.45.65,2.24,2.24,0,0,1,.16.88v2.3a.93.93,0,0,0,.18.61.75.75,0,0,0,.46.27Zm-1.05-2.75-1.13.1a1.07,1.07,0,0,0-.75.33.9.9,0,0,0-.23.59.74.74,0,0,0,.23.53.76.76,0,0,0,.57.23,1.17,1.17,0,0,0,.46-.1,1.65,1.65,0,0,0,.43-.27,1.31,1.31,0,0,0,.32-.41,1.12,1.12,0,0,0,.12-.5Z" transform="translate(-2 -2)"/><path class="cls-3" d="M73.19,255.82a11.84,11.84,0,0,1-.66,1.37,6.31,6.31,0,0,1-.69,1,4.19,4.19,0,0,1-.75.69,4.92,4.92,0,0,1-.8.46l-.69-.7a3.87,3.87,0,0,0,.72-.37,3.38,3.38,0,0,0,.63-.55,4.64,4.64,0,0,0,.56-.78,8.53,8.53,0,0,0,.51-1.07l-2.12-5.18h1.18l1.05,2.59.24.6.25.68h0c.08-.22.16-.43.24-.64l.24-.6,1.07-2.62h1.09Z" transform="translate(-2 -2)"/><path class="cls-3" d="M84.15,256.37l-2.52-3.51H80.5v3.51H79.29v-8h2.54a2.73,2.73,0,0,1,.85.14,2.4,2.4,0,0,1,.77.41,2.11,2.11,0,0,1,.78,1.69,2,2,0,0,1-.41,1.31,2.45,2.45,0,0,1-1,.75l2.74,3.7Zm-1.25-6.3a1.08,1.08,0,0,0-.31-.38,1.36,1.36,0,0,0-.45-.23,1.83,1.83,0,0,0-.51-.07H80.51v2.44h1.12a1.94,1.94,0,0,0,.51-.07,1.25,1.25,0,0,0,.45-.22,1.06,1.06,0,0,0,.31-.38,1.24,1.24,0,0,0,.11-.55,1.2,1.2,0,0,0-.11-.54" transform="translate(-2 -2)"/><path class="cls-3" d="M91.14,253.17l-.64.64H87.07a1.58,1.58,0,0,0,.15.56,1.9,1.9,0,0,0,.38.55,2,2,0,0,0,.62.42,2.15,2.15,0,0,0,.87.16,3.07,3.07,0,0,0,1-.15,3.13,3.13,0,0,0,.84-.44l-.29,1.22a3.06,3.06,0,0,1-.7.26,4.16,4.16,0,0,1-1,.1,3.18,3.18,0,0,1-1.16-.21,3,3,0,0,1-1-.61,3,3,0,0,1-.67-.94,2.87,2.87,0,0,1-.25-1.21,3.06,3.06,0,0,1,.26-1.29,3,3,0,0,1,.66-.94,2.86,2.86,0,0,1,1.91-.77,2.72,2.72,0,0,1,1,.19,2.39,2.39,0,0,1,.77.5,2.11,2.11,0,0,1,.48.7,2,2,0,0,1,.16.78,2.36,2.36,0,0,1,0,.46m-1.19-.86a1.31,1.31,0,0,0-.25-.39,1.23,1.23,0,0,0-.91-.39,1.55,1.55,0,0,0-.54.1,1.8,1.8,0,0,0-.5.28,1.89,1.89,0,0,0-.39.43,1.39,1.39,0,0,0-.21.55H90a.68.68,0,0,0,0-.15,1.09,1.09,0,0,0-.09-.43" transform="translate(-2 -2)"/><path class="cls-3" d="M96.74,252a2.45,2.45,0,0,0-.75-.35,3.23,3.23,0,0,0-.78-.09,2.09,2.09,0,0,0-.75.14,1.93,1.93,0,0,0-.64.4,2,2,0,0,0-.45.63,2.13,2.13,0,0,0,0,1.66,1.87,1.87,0,0,0,.45.63,2,2,0,0,0,.65.39,2.14,2.14,0,0,0,.76.14,3.28,3.28,0,0,0,.78-.09,4.25,4.25,0,0,0,.85-.32l-.24,1.12a3.6,3.6,0,0,1-1.49.29,3.31,3.31,0,0,1-1.14-.2,3,3,0,0,1-1.67-1.52,2.87,2.87,0,0,1-.26-1.25,2.9,2.9,0,0,1,.26-1.26A2.94,2.94,0,0,1,94,250.75a3.32,3.32,0,0,1,1.14-.2,4.08,4.08,0,0,1,1,.11A3.43,3.43,0,0,1,97,251Z" transform="translate(-2 -2)"/><path class="cls-3" d="M103.44,254.74a2.8,2.8,0,0,1-.64.94,2.94,2.94,0,0,1-1,.61,3.13,3.13,0,0,1-1.19.22,3.18,3.18,0,0,1-1.19-.22,2.92,2.92,0,0,1-1-.61,2.78,2.78,0,0,1-.64-.94,3.28,3.28,0,0,1,0-2.42,2.84,2.84,0,0,1,.64-.94,2.89,2.89,0,0,1,1-.61,3.18,3.18,0,0,1,1.19-.22,3.13,3.13,0,0,1,1.19.22,2.91,2.91,0,0,1,1,.61,2.86,2.86,0,0,1,.64.94,3.28,3.28,0,0,1,0,2.42m-1.06-2a1.92,1.92,0,0,0-.41-.62,1.89,1.89,0,0,0-.59-.4,1.78,1.78,0,0,0-.71-.15,1.81,1.81,0,0,0-.72.15,1.86,1.86,0,0,0-1,1,2.12,2.12,0,0,0-.15.82,2.08,2.08,0,0,0,.15.81,1.86,1.86,0,0,0,1,1,1.8,1.8,0,0,0,.72.15,1.76,1.76,0,0,0,.71-.15,1.88,1.88,0,0,0,1-1,2.1,2.1,0,0,0,.15-.81,2.14,2.14,0,0,0-.15-.82" transform="translate(-2 -2)"/><path class="cls-3" d="M108.63,256.37v-3.64a1.42,1.42,0,0,0-.07-.44,1,1,0,0,0-.23-.38,1.17,1.17,0,0,0-.41-.27,1.83,1.83,0,0,0-1.2,0,1.22,1.22,0,0,0-.43.27,1.17,1.17,0,0,0-.26.38,1.15,1.15,0,0,0-.09.44v3.64H104.8v-5.68h1l.05.57a2.23,2.23,0,0,1,.71-.53,2.91,2.91,0,0,1,1.91,0,2,2,0,0,1,.68.41,1.81,1.81,0,0,1,.45.65,2.17,2.17,0,0,1,.16.86v3.77Z" transform="translate(-2 -2)"/><path class="cls-3" d="M114.6,255.46a1.55,1.55,0,0,1-.39.54,1.92,1.92,0,0,1-.65.37,2.7,2.7,0,0,1-.9.14,3.35,3.35,0,0,1-.92-.12,2.21,2.21,0,0,1-.67-.3l-.26-1.25a3,3,0,0,0,.85.5,2.74,2.74,0,0,0,1,.2,1,1,0,0,0,.65-.19.59.59,0,0,0,.25-.48.65.65,0,0,0-.21-.5,1.7,1.7,0,0,0-.61-.33,3.81,3.81,0,0,1-1.31-.74,1.47,1.47,0,0,1-.45-1.12,1.56,1.56,0,0,1,.14-.65,1.52,1.52,0,0,1,.39-.52,1.76,1.76,0,0,1,.6-.34,2.42,2.42,0,0,1,.78-.12,3,3,0,0,1,.9.13,2.91,2.91,0,0,1,.58.23l-.21,1a2.06,2.06,0,0,0-.5-.25,2.33,2.33,0,0,0-.78-.11.89.89,0,0,0-.58.18.57.57,0,0,0-.21.46.53.53,0,0,0,.2.44,2.11,2.11,0,0,0,.63.31,3.92,3.92,0,0,1,1.32.75,1.53,1.53,0,0,1,.46,1.17,1.62,1.62,0,0,1-.13.65" transform="translate(-2 -2)"/><path class="cls-3" d="M119.35,251.6h-1.81v3.15a.62.62,0,0,0,.25.53,1,1,0,0,0,.6.18,2.18,2.18,0,0,0,.63-.08l-.22,1a2,2,0,0,1-.52,0,2.32,2.32,0,0,1-.73-.11,1.73,1.73,0,0,1-.59-.33,1.57,1.57,0,0,1-.4-.54,1.81,1.81,0,0,1-.15-.75V251.6h-1.12v-.92h1.12v-1.15l1.14-.59v1.74h2Z" transform="translate(-2 -2)"/><path class="cls-3" d="M123.67,251.57a2.59,2.59,0,0,0-.7.1,1.68,1.68,0,0,0-.65.34,1.86,1.86,0,0,0-.48.65,2.4,2.4,0,0,0-.19,1v2.69H120.5v-5.69h1.08l0,.89a1.36,1.36,0,0,1,.76-.75,3,3,0,0,1,1.17-.22l.21,1Z" transform="translate(-2 -2)"/><path class="cls-3" d="M128.62,256.36l-.05-.56a2.11,2.11,0,0,1-.71.54,2.62,2.62,0,0,1-1,.17,2.5,2.5,0,0,1-.86-.14,2,2,0,0,1-.68-.41,1.85,1.85,0,0,1-.45-.65,2.19,2.19,0,0,1-.16-.86v-3.77h1.14v3.64a1.41,1.41,0,0,0,.07.44,1,1,0,0,0,.23.38,1.19,1.19,0,0,0,.41.27,1.61,1.61,0,0,0,.61.1,1.63,1.63,0,0,0,.6-.1,1.25,1.25,0,0,0,.43-.27,1.15,1.15,0,0,0,.26-.38,1.13,1.13,0,0,0,.09-.44v-3.64h1.14v5.68Z" transform="translate(-2 -2)"/><path class="cls-3" d="M135.44,252a2.45,2.45,0,0,0-.75-.35,3.23,3.23,0,0,0-.78-.09,2.09,2.09,0,0,0-.75.14,1.93,1.93,0,0,0-.64.4,2,2,0,0,0-.45.63,2.13,2.13,0,0,0,0,1.66,1.87,1.87,0,0,0,.45.63,2,2,0,0,0,.65.39,2.14,2.14,0,0,0,.76.14,3.28,3.28,0,0,0,.78-.09,4.25,4.25,0,0,0,.85-.32l-.24,1.12a3.6,3.6,0,0,1-1.49.29,3.31,3.31,0,0,1-1.14-.2,3,3,0,0,1-1.67-1.52,2.87,2.87,0,0,1-.26-1.25,2.9,2.9,0,0,1,.26-1.26,2.94,2.94,0,0,1,1.67-1.53,3.32,3.32,0,0,1,1.14-.2,4.08,4.08,0,0,1,1,.11,3.43,3.43,0,0,1,.81.31Z" transform="translate(-2 -2)"/><path class="cls-3" d="M140.27,251.6h-1.81v3.15a.62.62,0,0,0,.25.53,1,1,0,0,0,.6.18,2.18,2.18,0,0,0,.63-.08l-.22,1a2,2,0,0,1-.52,0,2.32,2.32,0,0,1-.73-.11,1.73,1.73,0,0,1-.59-.33,1.57,1.57,0,0,1-.4-.54,1.81,1.81,0,0,1-.15-.75V251.6h-1.12v-.92h1.12v-1.15l1.14-.59v1.74h2Z" transform="translate(-2 -2)"/><path class="cls-3" d="M142.76,249.11a1.12,1.12,0,0,1-.19.23,1.61,1.61,0,0,1-.23.18.4.4,0,0,1-.21.08.41.41,0,0,1-.21-.08,1.37,1.37,0,0,1-.23-.18,1.25,1.25,0,0,1-.18-.23.32.32,0,0,1,0-.41,1.45,1.45,0,0,1,.18-.23,1.18,1.18,0,0,1,.23-.19.41.41,0,0,1,.21-.08.41.41,0,0,1,.21.08,1.36,1.36,0,0,1,.23.19,1.29,1.29,0,0,1,.19.23.32.32,0,0,1,0,.41m-1.2,1.57h1.14v5.69h-1.14Z" transform="translate(-2 -2)"/><path class="cls-3" d="M146.8,256.47h-.46L144,250.68h1.16l1,2.51.24.6c.08.21.16.43.23.65h0c.07-.22.14-.43.23-.65l.24-.6,1-2.51h1.07Z" transform="translate(-2 -2)"/><path class="cls-3" d="M153.89,256.51a1.08,1.08,0,0,1-.51-.26,1.19,1.19,0,0,1-.32-.46,1.65,1.65,0,0,1-.72.57,2.37,2.37,0,0,1-.88.16,2,2,0,0,1-.77-.14,1.81,1.81,0,0,1-.58-.38,1.62,1.62,0,0,1-.36-.56,1.8,1.8,0,0,1-.12-.66,1.67,1.67,0,0,1,.16-.74,1.69,1.69,0,0,1,.41-.55,2,2,0,0,1,.6-.36,2.72,2.72,0,0,1,.7-.17l1.33-.12v-.36a.93.93,0,0,0-.25-.66,1.13,1.13,0,0,0-.85-.27,3.08,3.08,0,0,0-.84.12,2.56,2.56,0,0,0-.73.32l-.23-.94a2.87,2.87,0,0,1,.86-.37,4.07,4.07,0,0,1,1-.12,2.81,2.81,0,0,1,.88.13,1.9,1.9,0,0,1,.69.4,1.83,1.83,0,0,1,.45.65,2.24,2.24,0,0,1,.16.88v2.3a.93.93,0,0,0,.18.61.75.75,0,0,0,.46.27Zm-1.05-2.75-1.13.1a1.07,1.07,0,0,0-.75.33.9.9,0,0,0-.23.59.74.74,0,0,0,.23.53.76.76,0,0,0,.57.23,1.17,1.17,0,0,0,.46-.1,1.65,1.65,0,0,0,.43-.27,1.31,1.31,0,0,0,.32-.41,1.12,1.12,0,0,0,.12-.5Z" transform="translate(-2 -2)"/><path class="cls-3" d="M156.8,256.23a5,5,0,0,1-.31.63,7.5,7.5,0,0,1-.41.64,3.15,3.15,0,0,1-.45.51l-.44-.08a5.23,5.23,0,0,0,.55-.87,2.79,2.79,0,0,0,.26-.72.49.49,0,0,1-.19-.08,1.37,1.37,0,0,1-.2-.16.92.92,0,0,1-.16-.19.34.34,0,0,1-.06-.18.43.43,0,0,1,.09-.23,1.32,1.32,0,0,1,.21-.24,1.52,1.52,0,0,1,.25-.19.44.44,0,0,1,.22-.08.47.47,0,0,1,.21.07,1.51,1.51,0,0,1,.26.19,1.26,1.26,0,0,1,.21.24.44.44,0,0,1,.09.24,1.42,1.42,0,0,1-.12.49" transform="translate(-2 -2)"/><path class="cls-3" d="M166.57,256.37l-.87-2.07h-3.11l-.87,2.07h-1.19l3.41-8.12h.44l3.41,8.12Zm-2.07-5c-.06-.13-.12-.29-.18-.46l-.16-.51h0q-.06.25-.16.51t-.18.46l-.79,2h2.28Z" transform="translate(-2 -2)"/><path class="cls-3" d="M170.27,256a1.63,1.63,0,0,1-.21.25,1.45,1.45,0,0,1-.26.21.45.45,0,0,1-.22.08.43.43,0,0,1-.23-.08,1.7,1.7,0,0,1-.46-.46.42.42,0,0,1-.08-.23.44.44,0,0,1,.08-.22,1.29,1.29,0,0,1,.21-.25,1.74,1.74,0,0,1,.25-.2.42.42,0,0,1,.23-.08.44.44,0,0,1,.22.08,1.54,1.54,0,0,1,.26.2,1.29,1.29,0,0,1,.21.25.44.44,0,0,1,.08.22.42.42,0,0,1-.08.23" transform="translate(-2 -2)"/><path class="cls-3" d="M177.4,249.78l-.36-.18a3.82,3.82,0,0,0-.48-.17c-.18,0-.36-.09-.56-.13a3.7,3.7,0,0,0-.61,0,3.62,3.62,0,0,0-1.17.19,3.2,3.2,0,0,0-1,.58,2.88,2.88,0,0,0-.74,1,3.49,3.49,0,0,0,0,2.74,2.79,2.79,0,0,0,.73,1,3.17,3.17,0,0,0,1,.58,3.66,3.66,0,0,0,1.18.2,5.28,5.28,0,0,0,1.28-.14,3.4,3.4,0,0,0,.93-.36l-.25,1.17a3.09,3.09,0,0,1-.85.29,6.61,6.61,0,0,1-1.25.09,4.73,4.73,0,0,1-1.53-.26,4.32,4.32,0,0,1-1.39-.79,3.93,3.93,0,0,1-1.4-3.11,4,4,0,0,1,.4-1.82,4.08,4.08,0,0,1,1-1.3,4.33,4.33,0,0,1,1.39-.78,4.64,4.64,0,0,1,1.52-.26,5.53,5.53,0,0,1,1.41.16,3.92,3.92,0,0,1,.95.37Z" transform="translate(-2 -2)"/><path class="cls-3" d="M180,256a1.63,1.63,0,0,1-.21.25,1.45,1.45,0,0,1-.26.21.45.45,0,0,1-.22.08.43.43,0,0,1-.23-.08,1.7,1.7,0,0,1-.46-.46.42.42,0,0,1-.08-.23.44.44,0,0,1,.08-.22,1.29,1.29,0,0,1,.21-.25,1.74,1.74,0,0,1,.25-.2.42.42,0,0,1,.23-.08.44.44,0,0,1,.22.08,1.54,1.54,0,0,1,.26.2,1.29,1.29,0,0,1,.21.25.44.44,0,0,1,.08.22.42.42,0,0,1-.08.23" transform="translate(-2 -2)"/></svg>